<svg width="83" height="84" viewBox="0 0 83 84" fill="none" xmlns="http://www.w3.org/2000/svg">
<path d="M67.0436 45.6747C67.6743 45.6747 68.186 45.1632 68.186 44.5325C68.186 43.9018 67.6743 43.3902 67.0436 43.3902H58.0037C57.3728 43.3902 56.8613 43.9018 56.8613 44.5325V75.643C56.8613 76.2739 57.3728 76.7854 58.0037 76.7854H67.0436C67.6743 76.7854 68.186 76.2739 68.186 75.643V49.1313C68.186 48.5005 67.6743 47.989 67.0436 47.989C66.4129 47.989 65.9013 48.5005 65.9013 49.1313V74.5007H59.1461V45.6747H67.0436Z" fill="#BA2B43"/>
<path d="M44.1983 55.4047C44.829 55.4047 45.3406 54.893 45.3406 54.2623C45.3406 53.6316 44.829 53.1201 44.1983 53.1201H35.158C34.5269 53.1201 34.0156 53.6316 34.0156 54.2623V75.6414C34.0156 76.2723 34.5271 76.7838 35.158 76.7838H44.1983C44.829 76.7838 45.3406 76.2723 45.3406 75.6414V60.0316C45.3406 59.4009 44.829 58.8895 44.1983 58.8895C43.5675 58.8895 43.0559 59.4009 43.0559 60.0316V74.4991H36.3004V55.4047H44.1983Z" fill="#BA2B43"/>
<path d="M21.3537 64.9035C21.9846 64.9035 22.4961 64.392 22.4961 63.7613C22.4961 63.1306 21.9846 62.6189 21.3537 62.6189H12.3133C11.6822 62.6189 11.1709 63.1306 11.1709 63.7613V75.6429C11.1709 76.2738 11.6822 76.7853 12.3133 76.7853H21.3537C21.9846 76.7853 22.4961 76.2738 22.4961 75.6429V68.7837C22.4961 68.153 21.9846 67.6413 21.3537 67.6413C20.7227 67.6413 20.2113 68.153 20.2113 68.7837V74.5004H13.4558V64.9035H21.3537Z" fill="#BA2B43"/>
<path d="M36.978 38.954C37.3598 38.4518 37.2623 37.7349 36.7601 37.3533C36.2577 36.9713 35.5414 37.0686 35.1592 37.5712C34.5781 38.3353 33.6951 38.7736 32.7365 38.7736H21.9536C21.6819 38.7736 21.419 38.8704 21.2122 39.0468L16.2409 43.2855L17.0402 40.2026C17.1288 39.8606 17.0542 39.4965 16.8379 39.2169C16.6213 38.9375 16.2878 38.7736 15.9343 38.7736H9.32598C7.6492 38.7736 6.2849 37.4093 6.2849 35.7325V19.1294C6.2849 17.8919 7.02388 16.7879 8.16776 16.3162C8.75109 16.0757 9.02901 15.4079 8.78853 14.8245C8.54788 14.2416 7.88091 13.9628 7.29691 14.204C5.29431 15.0296 4 16.9627 4 19.1292V35.7323C4 38.6689 6.38912 41.0583 9.32598 41.0583H14.4582L13.1204 46.2179C12.9952 46.7005 13.1976 47.2083 13.6202 47.4727C13.8066 47.5894 14.0169 47.6467 14.2261 47.6467C14.4916 47.6467 14.7555 47.5547 14.9675 47.3735L22.3743 41.0583H32.7364C34.4152 41.0585 35.9611 40.2915 36.978 38.954Z" fill="#BA2B43"/>
<path d="M43.6015 9.2849C45.2783 9.2849 46.6426 10.649 46.6426 12.326V14.1508C46.6426 14.7815 47.1542 15.2932 47.785 15.2932C48.4157 15.2932 48.9273 14.7815 48.9273 14.1508V12.326C48.9273 9.38929 46.5379 7 43.6013 7C42.9706 7 42.459 7.51148 42.459 8.14237C42.459 8.77308 42.9708 9.2849 43.6015 9.2849Z" fill="#BA2B43"/>
<path d="M47.7844 31.9704C47.1537 31.9704 46.642 32.4819 46.642 33.1128V39.643L42.3967 32.5276C42.3915 32.5187 42.3842 32.5119 42.3787 32.5033C42.3564 32.4683 42.3308 32.4364 42.3048 32.4038C42.283 32.3767 42.2625 32.3485 42.2387 32.3237C42.2131 32.2969 42.1844 32.2738 42.1561 32.2495C42.1281 32.2256 42.1013 32.2006 42.0712 32.1797C42.0405 32.158 42.007 32.1409 41.9743 32.122C41.9436 32.1048 41.9141 32.0863 41.8822 32.0721C41.8463 32.0559 41.8085 32.0448 41.7711 32.0325C41.7383 32.0219 41.7065 32.0097 41.6731 32.0021C41.6372 31.9937 41.5999 31.99 41.5628 31.9851C41.5243 31.9801 41.4864 31.9745 41.4476 31.9735C41.4366 31.9733 41.4265 31.9703 41.4156 31.9703H16.1941C14.5172 31.9703 13.1529 30.606 13.1529 28.9292V12.3259C13.1529 10.649 14.5172 9.28485 16.1941 9.28485H35.6771C36.3081 9.28485 36.8195 8.7732 36.8195 8.14249C36.8195 7.51161 36.308 7.00012 35.6771 7.00012H16.1941C13.2573 7.00012 10.8682 9.38941 10.8682 12.3261V28.9295C10.8682 31.8661 13.2573 34.2555 16.1941 34.2555H40.7668L46.8034 44.3729C47.0131 44.7247 47.3896 44.9301 47.7844 44.9301C47.8853 44.9301 47.9871 44.9167 48.088 44.8891C48.5834 44.7525 48.9269 44.3019 48.9269 43.7877V33.1128C48.9269 32.4819 48.4153 31.9704 47.7844 31.9704Z" fill="#BA2B43"/>
<path d="M77.1552 21.8641C77.1444 21.2563 76.6594 20.7636 76.0518 20.7432C72.5414 20.6227 69.6022 21.4661 67.3083 23.2426C66.8095 23.6287 66.7181 24.3463 67.1043 24.8451C67.4906 25.344 68.2085 25.4349 68.707 25.0492C70.3104 23.8077 72.3463 23.1306 74.772 23.0302C74.5806 24.2635 74.0212 26.2604 72.3869 27.7147C70.8575 29.076 68.6733 29.6937 65.8835 29.5637C66.4682 29.0883 67.2058 28.6863 68.1426 28.4233C68.7504 28.2527 69.1043 27.6223 68.934 27.0147C68.7635 26.4071 68.1311 26.0531 67.5255 26.2233C64.6384 27.0334 63.0284 28.8814 62.1933 30.7749C60.3998 28.0117 56.3678 25.9079 55.8707 25.656C55.3094 25.3708 54.6219 25.5948 54.3355 26.1575C54.05 26.7201 54.2745 27.4073 54.8367 27.6931C55.6595 28.1115 57.3997 29.1419 58.7888 30.3694C55.0904 30.3679 52.2297 29.4084 50.2789 27.4992C48.0372 25.3052 47.4979 22.3221 47.3764 20.7261C50.7258 20.9671 53.4883 22.0039 55.6013 23.8163C56.0805 24.2266 56.8017 24.1716 57.2124 23.6927C57.623 23.2139 57.5677 22.4926 57.0887 22.0816C54.3163 19.7042 50.6622 18.4616 46.228 18.3896C46.2216 18.3896 46.2157 18.3896 46.2093 18.3896C45.6096 18.3896 45.1108 18.8541 45.0696 19.4542C45.0538 19.689 44.7236 25.2396 48.6615 29.1126C51.0572 31.4691 54.4581 32.6577 58.7915 32.6577C59.3718 32.6577 59.9732 32.6306 60.5867 32.5879C61.1966 33.9844 61.4474 35.8339 61.5494 37.1435C61.596 37.7422 62.0963 38.197 62.6871 38.197C62.7171 38.197 62.747 38.196 62.7771 38.1935C63.406 38.1444 63.8763 37.595 63.8273 36.9658C63.7878 36.4599 63.7252 35.8772 63.634 35.2659C63.6905 35.1167 63.719 34.9544 63.7075 34.7851C63.6999 34.6753 63.6192 33.2348 64.2728 31.7179C65.0828 31.8164 65.8604 31.8683 66.6019 31.8683C69.6275 31.8683 72.0775 31.0491 73.9067 29.4212C77.2012 26.4889 77.1587 22.0518 77.1552 21.8641Z" fill="#BA2B43"/>
</svg>
