<svg width="84" height="85" viewBox="0 0 84 85" fill="none" xmlns="http://www.w3.org/2000/svg">
<path d="M43.681 17.5327C34.0681 17.5327 26.2471 25.3535 26.2471 34.9666C26.2471 37.7406 26.9151 40.5012 28.1782 42.9495C28.4748 43.5252 29.183 43.7507 29.7584 43.4542C30.3341 43.1571 30.5602 42.4498 30.2629 41.8741C29.155 39.7263 28.5929 37.4023 28.5929 34.9666C28.5929 26.6469 35.3612 19.8787 43.6808 19.8787C52.0005 19.8787 58.7689 26.6469 58.7689 34.9666C58.7689 39.9691 56.2958 44.637 52.1527 47.4533C51.617 47.8176 51.4781 48.5471 51.8423 49.083C52.0694 49.4168 52.4377 49.5964 52.8131 49.5964C53.0405 49.5964 53.2697 49.5306 53.4716 49.3935C58.2578 46.1398 61.115 40.7467 61.115 34.9666C61.1151 25.3535 53.2943 17.5327 43.681 17.5327Z" fill="#BA2B43"/>
<path d="M47.4934 46.0905C47.633 46.0905 47.7748 46.0653 47.913 46.0123C52.4549 44.2711 55.5063 39.8327 55.5063 34.9674C55.5063 28.4471 50.2018 23.1426 43.6815 23.1426C37.1614 23.1426 31.8564 28.4471 31.8564 34.9674C31.8564 37.9984 33.002 40.8806 35.0822 43.0838C35.5265 43.5549 36.2692 43.5768 36.7401 43.1316C37.2115 42.6868 37.2327 41.9446 36.7878 41.4737C35.1207 39.7074 34.2023 37.3967 34.2023 34.9674C34.2023 29.7409 38.4547 25.4886 43.6814 25.4886C48.9081 25.4886 53.1603 29.7409 53.1603 34.9674C53.1603 38.8679 50.7139 42.426 47.073 43.8219C46.4682 44.054 46.1659 44.7324 46.3976 45.3372C46.5768 45.8038 47.0214 46.0905 47.4934 46.0905Z" fill="#BA2B43"/>
<path d="M21.6265 48.16C22.2743 48.16 22.7994 47.6346 22.7994 46.9869C22.7994 46.3393 22.2743 45.8141 21.6265 45.8141H18.3446C17.697 45.8141 17.1719 46.3393 17.1719 46.9869V63.3038C17.1719 63.9514 17.697 64.4767 18.3446 64.4767H25.9083H47.2281C50.0118 64.4767 52.7639 63.5466 54.9769 61.8575L62.0974 56.4234C64.0803 54.9104 64.4924 52.0439 63.0161 50.0338C61.5381 48.0209 58.6773 47.5576 56.6388 49.0009L52.9936 51.5826C52.465 51.9571 52.3402 52.6892 52.7145 53.218C53.0892 53.7463 53.8211 53.8713 54.3498 53.4971L57.9951 50.9153C58.9959 50.2061 60.4003 50.4346 61.1251 51.4223C61.8501 52.4091 61.6479 53.8159 60.6744 54.5585L53.5538 59.9925C51.7468 61.3715 49.5007 62.1307 47.2281 62.1307H27.0812V48.1598H35.0219C36.3997 48.1598 37.7007 48.69 38.6856 49.653C40.1122 51.0465 41.9957 51.8139 43.9895 51.8139H46.2618C47.3258 51.8139 48.191 52.6792 48.191 53.7428C48.191 55.1609 47.0375 56.3148 45.6192 56.3148H37.389C36.7415 56.3148 36.2161 56.84 36.2161 57.4875C36.2161 58.1353 36.7415 58.6605 37.389 58.6605H45.6192C48.3307 58.6605 50.5368 56.4544 50.5368 53.7428C50.5368 51.3861 48.619 49.4681 46.2618 49.4681H43.9895C42.6119 49.4681 41.3107 48.9378 40.3253 47.975C38.8998 46.581 37.0162 45.8138 35.0219 45.8138H25.9082C25.2606 45.8138 24.7352 46.3389 24.7352 46.9865V62.1306H19.5175V48.1596H21.6265V48.16Z" fill="#BA2B43"/>
<path d="M43.682 43.5876C44.3298 43.5876 44.8549 43.0622 44.8549 42.4146V41.4651C46.5066 41.1603 47.7625 39.7123 47.7625 37.9739C47.7625 36.0145 46.1686 34.4207 44.2092 34.4207H44.028H43.3388H43.1575C42.4918 34.4207 41.9502 33.8794 41.9502 33.2136C41.9502 32.5479 42.4918 32.0066 43.1575 32.0066H45.9C46.5478 32.0066 47.073 31.4813 47.073 30.8337C47.073 30.1861 46.5478 29.6608 45.9 29.6608H44.8551V28.9117C44.8551 28.264 44.3299 27.7388 43.6822 27.7388C43.0346 27.7388 42.5094 28.2641 42.5094 28.9117V29.7229C40.859 30.0289 39.6045 31.4764 39.6045 33.2138C39.6045 35.1728 41.1983 36.7667 43.1577 36.7667H43.339H44.0281H44.2094C44.8752 36.7667 45.4168 37.3083 45.4168 37.974C45.4168 38.6398 44.8752 39.1811 44.2094 39.1811H41.4669C40.8193 39.1811 40.294 39.7064 40.294 40.354C40.294 41.0017 40.8193 41.5269 41.4669 41.5269H42.5094V42.4148C42.5093 43.0622 43.0344 43.5876 43.682 43.5876Z" fill="#BA2B43"/>
<path d="M73.5395 71.3087L63.9628 64.6949C63.4298 64.327 62.699 64.4603 62.331 64.9934C61.9629 65.5265 62.0966 66.2571 62.6295 66.6254L70.8088 72.274L64.4692 76.6526V74.6696C64.4692 74.022 63.9439 73.4966 63.2963 73.4966H26.4415V71.0512H63.2963C63.9439 71.0512 64.4692 70.5259 64.4692 69.8783C64.4692 69.2307 63.9439 68.7056 63.2963 68.7056H25.2684C24.6209 68.7056 24.0957 69.2307 24.0957 69.8783V74.6696C24.0957 75.3171 24.6209 75.8423 25.2684 75.8423H62.1232V78.888C62.1232 79.324 62.3651 79.7241 62.7512 79.9267C62.9225 80.0166 63.1095 80.0609 63.2962 80.0609C63.5303 80.0609 63.7631 79.9908 63.9628 79.8531L73.5395 73.239C73.8567 73.02 74.046 72.6589 74.046 72.2739C74.046 71.8884 73.8567 71.5276 73.5395 71.3087Z" fill="#BA2B43"/>
<path d="M20.3259 68.7043H15.1153C14.4677 68.7043 13.9424 69.2294 13.9424 69.877V74.6684C13.9424 75.316 14.4677 75.8412 15.1153 75.8412H20.3259C20.9735 75.8412 21.4986 75.316 21.4986 74.6684V69.877C21.4986 69.2294 20.9735 68.7043 20.3259 68.7043ZM19.1528 73.4955H16.2882V71.0501H19.1528V73.4955Z" fill="#BA2B43"/>
<path d="M10.1729 68.7042C9.52534 68.7042 9 69.2293 9 69.8769V74.6683C9 75.3159 9.52534 75.8411 10.1729 75.8411C10.8205 75.8411 11.3458 75.3159 11.3458 74.6683V69.8769C11.3458 69.2293 10.8205 68.7042 10.1729 68.7042Z" fill="#BA2B43"/>
<path d="M10.1764 12.7524L19.7531 19.3666C19.9568 19.507 20.1888 19.5743 20.4187 19.5743C20.7912 19.5743 21.1576 19.3976 21.3849 19.068C21.753 18.5349 21.6193 17.8046 21.0864 17.4363L12.9071 11.7871L19.2467 7.40848V9.39156C19.2467 10.0391 19.772 10.5645 20.4196 10.5645H57.2744V13.0099H20.4198C19.7722 13.0099 19.2468 13.5352 19.2468 14.1828C19.2468 14.8304 19.7722 15.3557 20.4198 15.3557H58.4475C59.095 15.3557 59.6202 14.8304 59.6202 14.1828V9.39156C59.6202 8.74381 59.095 8.21865 58.4475 8.21865H21.5927V5.17294C21.5927 4.73695 21.3508 4.3368 20.9647 4.13404C20.5785 3.9318 20.1116 3.96002 19.7531 4.2078L10.1764 10.8221C9.85918 11.041 9.66992 11.402 9.66992 11.7873C9.66992 12.1725 9.85918 12.5334 10.1764 12.7524Z" fill="#BA2B43"/>
<path d="M63.3889 15.3562H68.5993C69.2469 15.3562 69.7723 14.8309 69.7723 14.1833V9.39206C69.7723 8.74431 69.2469 8.21915 68.5993 8.21915H63.3889C62.7412 8.21915 62.2158 8.74448 62.2158 9.39206V14.1833C62.2158 14.831 62.7412 15.3562 63.3889 15.3562ZM64.5618 10.565H67.4264V13.0104H64.5618V10.565Z" fill="#BA2B43"/>
<path d="M73.543 8.21915C72.8955 8.21915 72.3701 8.74448 72.3701 9.39206V14.1833C72.3701 14.8309 72.8955 15.3562 73.543 15.3562C74.1906 15.3562 74.716 14.8309 74.716 14.1833V9.39206C74.7161 8.74431 74.1906 8.21915 73.543 8.21915Z" fill="#BA2B43"/>
</svg>
