<svg width="77" height="78" viewBox="0 0 77 78" fill="none" xmlns="http://www.w3.org/2000/svg">
<path d="M59.1217 63.2163C58.5322 63.2163 58.0543 63.6998 58.0543 64.2961V66.5337C58.0543 69.4741 55.6891 71.8665 52.782 71.8665H14.7588C16.0102 70.7229 16.9691 69.0822 16.9691 66.8223V56.2634C16.9691 55.667 16.4911 55.1838 15.9017 55.1838C15.3122 55.1838 14.8343 55.667 14.8343 56.2634V66.8223C14.8343 70.9749 10.2251 71.8472 10.0319 71.882C10.0004 71.8874 9.9714 71.8985 9.94099 71.9067C9.85322 71.8831 9.76277 71.8665 9.66776 71.8665C7.38752 71.8665 5.53242 69.9901 5.53242 67.6836V60.6328H11.2964C11.8859 60.6328 12.3638 60.1494 12.3638 59.5531C12.3638 58.9569 11.8859 58.4735 11.2964 58.4735H4.46486C3.87538 58.4735 3.39746 58.9569 3.39746 59.5531V67.6838C3.39746 71.181 6.21029 74.0262 9.6676 74.0262C9.7623 74.0262 9.85227 74.0096 9.93973 73.9863C10.0272 74.0096 10.117 74.0262 10.2114 74.0262H52.7819C56.8662 74.0262 60.1891 70.6651 60.1891 66.5338V64.2962C60.1891 63.7 59.7111 63.2163 59.1217 63.2163Z" fill="#BA2B43"/>
<path d="M15.9014 19.8947C16.491 19.8947 16.9688 19.4113 16.9688 18.8151V6.15933H58.0539V20.2715C58.0539 20.8679 58.5318 21.3512 59.1213 21.3512C59.7107 21.3512 60.1886 20.8678 60.1886 20.2715V5.07967C60.1886 4.48341 59.7107 4 59.1213 4H15.9014C15.3119 4 14.834 4.48341 14.834 5.07967V18.8151C14.8341 19.4115 15.3119 19.8947 15.9014 19.8947Z" fill="#BA2B43"/>
<path d="M35.8955 13.0441C35.3059 13.0441 34.8281 13.5275 34.8281 14.1237C34.8281 14.7201 35.306 15.2034 35.8955 15.2034H53.1096C53.6992 15.2034 54.177 14.72 54.177 14.1237C54.177 13.5275 53.6992 13.0441 53.1096 13.0441H35.8955Z" fill="#BA2B43"/>
<path d="M21.6953 13.0441C21.1058 13.0441 20.6279 13.5275 20.6279 14.1237C20.6279 14.7201 21.1058 15.2034 21.6953 15.2034H29.3256C29.9151 15.2034 30.393 14.72 30.393 14.1237C30.393 13.5275 29.9151 13.0441 29.3256 13.0441H21.6953Z" fill="#BA2B43"/>
<path d="M53.11 67.3297C53.6996 67.3297 54.1774 66.8463 54.1774 66.2501C54.1774 65.654 53.6996 65.1704 53.11 65.1704H45.6973C45.1076 65.1704 44.6299 65.654 44.6299 66.2501C44.6299 66.8463 45.1076 67.3297 45.6973 67.3297H53.11Z" fill="#BA2B43"/>
<path d="M20.6279 66.2501C20.6279 66.8463 21.1058 67.3297 21.6953 67.3297H38.4494C39.0389 67.3297 39.5168 66.8463 39.5168 66.2501C39.5168 65.654 39.0389 65.1704 38.4494 65.1704H21.6953C21.1058 65.1703 20.6279 65.6538 20.6279 66.2501Z" fill="#BA2B43"/>
<path d="M30.0653 57.5299H21.6953C21.1058 57.5299 20.6279 58.0132 20.6279 58.6094C20.6279 59.2058 21.1058 59.6891 21.6953 59.6891H30.0653C30.6549 59.6891 31.1327 59.2058 31.1327 58.6094C31.1328 58.0132 30.6549 57.5299 30.0653 57.5299Z" fill="#BA2B43"/>
<path d="M53.9728 42.0869H36.7151C36.7101 42.0869 36.7052 42.0884 36.7001 42.0885C36.6609 42.089 36.6228 42.0954 36.5842 42.1003C36.552 42.1041 36.5193 42.1057 36.4881 42.1126C36.4598 42.1188 36.4332 42.1298 36.4056 42.1384C36.3666 42.1503 36.327 42.1607 36.29 42.1768C36.2679 42.1867 36.2481 42.2004 36.2266 42.2117C36.1876 42.2323 36.1479 42.2516 36.1119 42.2764C36.0866 42.294 36.0647 42.3161 36.0409 42.3359C36.012 42.3596 35.9819 42.3816 35.9558 42.4084C35.9332 42.4315 35.915 42.4584 35.8945 42.4836C35.8708 42.5128 35.8456 42.5402 35.8251 42.5719C35.8102 42.5947 35.7991 42.6209 35.7858 42.6449C35.7646 42.6835 35.7429 42.7214 35.7263 42.7627C35.7246 42.767 35.7219 42.7705 35.7202 42.7748C35.5497 43.2181 35.3543 43.6584 35.1395 44.0835C34.8714 44.6146 35.0795 45.2649 35.6044 45.5361C35.7599 45.6166 35.9258 45.6547 36.0891 45.6547C36.4773 45.6547 36.8519 45.4396 37.0405 45.066C37.1762 44.7972 37.3033 44.5231 37.4247 44.2462H53.9725C54.5621 44.2462 55.0399 43.7628 55.0399 43.1664C55.0402 42.5702 54.5624 42.0869 53.9728 42.0869Z" fill="#BA2B43"/>
<path d="M41.6904 37.4963H44.4979C45.0876 37.4963 45.5655 37.0129 45.5655 36.4167V33.4738C45.5655 33.1836 45.7987 32.9475 46.0856 32.9475H49.5981C49.7865 32.9475 49.9102 33.0449 49.9674 33.1031C50.0243 33.1612 50.12 33.2873 50.1184 33.4781L50.0947 36.4769C50.0924 36.7648 50.2038 37.0416 50.4044 37.2458C50.6048 37.4503 50.8776 37.5652 51.1623 37.5652H54.0746C54.6642 37.5652 55.142 37.0818 55.142 36.4855C55.142 35.8893 54.6642 35.4059 54.0746 35.4059H52.2382L52.2533 33.4953C52.2592 32.7738 51.9856 32.0943 51.483 31.5822C50.9806 31.0701 50.3114 30.7882 49.5982 30.7882H46.0858C44.6219 30.7882 43.4307 31.9931 43.4307 33.474V35.337H41.6904C41.101 35.337 40.623 35.8204 40.623 36.4167C40.6229 37.0129 41.1008 37.4963 41.6904 37.4963Z" fill="#BA2B43"/>
<path d="M22.5337 54.0516C23.7809 54.0516 25.0238 53.9083 26.2281 53.6254C26.8025 53.4905 27.1598 52.9107 27.0265 52.3297C26.8934 51.7488 26.3205 51.3865 25.7456 51.5221C24.6992 51.7676 23.6187 51.8922 22.5337 51.8922C14.7338 51.8922 8.38804 45.4735 8.38804 37.584C8.38804 29.6943 14.7338 23.2756 22.5337 23.2756C24.3874 23.2756 26.1889 23.6323 27.888 24.336C28.4338 24.562 29.057 24.2974 29.2803 23.7458C29.5036 23.194 29.2423 22.5635 28.6968 22.3375C26.7396 21.5272 24.6659 21.1163 22.5335 21.1163C13.5564 21.1163 6.25293 28.5036 6.25293 37.584C6.25309 46.6643 13.5566 54.0516 22.5337 54.0516Z" fill="#BA2B43"/>
<path d="M22.5344 33.6336C22.7024 33.6336 22.8708 33.6444 23.0353 33.6656C23.6212 33.7423 24.1547 33.3231 24.2295 32.7318C24.3044 32.1403 23.8911 31.5996 23.3063 31.5238C23.0523 31.491 22.7926 31.4743 22.5344 31.4743C19.2039 31.4743 16.4941 34.215 16.4941 37.5839C16.4941 40.9528 19.2038 43.6935 22.5344 43.6935C23.1239 43.6935 23.6018 43.2102 23.6018 42.6139C23.6018 42.0175 23.1239 41.5343 22.5344 41.5343C20.3808 41.5343 18.6291 39.7622 18.6291 37.5841C18.6291 35.4058 20.3808 33.6336 22.5344 33.6336Z" fill="#BA2B43"/>
<path d="M71.8766 60.776L64.3755 53.1885C63.9586 52.7669 63.2826 52.7669 62.8658 53.1885C62.4489 53.6102 62.4489 54.294 62.8658 54.7155L70.3669 62.3029C71.1437 63.0886 71.1437 64.367 70.367 65.1531C69.5901 65.9386 68.326 65.9392 67.549 65.1531L57.6018 55.0914C62.0938 51.3658 64.9656 45.7118 64.9656 39.3912C64.9656 28.1987 55.9632 19.0929 44.8979 19.0929C33.8324 19.0929 24.8301 28.1988 24.8301 39.3912C24.8301 50.5837 33.8325 59.6896 44.8979 59.6896C48.9403 59.6896 52.7047 58.4702 55.8582 56.3817L66.0395 66.6797C66.844 67.4937 67.9009 67.9004 68.9579 67.9004C70.0147 67.9004 71.0717 67.4937 71.8764 66.6797C73.4857 65.0522 73.4857 62.4039 71.8766 60.776ZM44.8979 57.5304C35.0096 57.5304 26.9649 49.3931 26.9649 39.3912C26.9649 29.3894 35.0096 21.2522 44.8979 21.2522C54.7861 21.2522 62.8308 29.3894 62.8308 39.3912C62.8308 49.3931 54.7861 57.5304 44.8979 57.5304Z" fill="#BA2B43"/>
<path d="M44.8987 24.5411C36.8035 24.5411 30.2178 31.2026 30.2178 39.3908C30.2178 47.5789 36.8035 54.2404 44.8987 54.2404C52.9937 54.2404 59.5794 47.5789 59.5794 39.3908C59.5794 31.2027 52.9937 24.5411 44.8987 24.5411ZM44.8987 52.0809C37.9809 52.0809 32.3526 46.3882 32.3526 39.3908C32.3526 32.3933 37.9808 26.7006 44.8987 26.7006C51.8166 26.7006 57.4445 32.3933 57.4445 39.3908C57.4445 46.3882 51.8164 52.0809 44.8987 52.0809Z" fill="#BA2B43"/>
<path d="M36.4445 34.9762C36.4642 35.0794 36.4789 35.1811 36.4959 35.2834C36.5628 35.7021 36.6133 36.1244 36.6434 36.5491C36.6442 36.5623 36.6451 36.5756 36.646 36.5886C36.656 36.734 36.6632 36.8795 36.6689 37.0252C36.675 37.208 36.6802 37.3919 36.6802 37.5849C36.6802 37.8404 36.6709 38.099 36.6576 38.3556C36.6503 38.4949 36.6434 38.6346 36.6322 38.7725C36.5838 39.3669 37.0211 39.8882 37.6085 39.9371C37.6383 39.9397 37.6679 39.9408 37.6972 39.9408C38.247 39.9408 38.7139 39.5137 38.7599 38.9496C38.7687 38.8415 38.773 38.7322 38.7797 38.6233C38.7808 38.6107 38.7846 38.5991 38.7854 38.5864C38.7878 38.5486 38.7868 38.5105 38.7887 38.4727C38.8043 38.1771 38.815 37.8804 38.815 37.5849C38.815 37.369 38.81 37.1532 38.8016 36.9378C38.7961 36.7748 38.7865 36.6145 38.7766 36.4563C38.7747 36.431 38.7733 36.4058 38.7716 36.3806C38.7385 35.8969 38.6833 35.4248 38.6048 34.9499C38.585 34.8255 38.565 34.7012 38.5424 34.5775C38.5401 34.5651 38.5388 34.5531 38.5363 34.5409C38.5357 34.5375 38.5341 34.5345 38.5335 34.5312C38.4359 34.0047 38.3146 33.4834 38.1666 32.9695C38.0015 32.397 37.4095 32.0679 36.8432 32.2351C36.2773 32.4019 35.9523 33.0012 36.1171 33.5737C36.2499 34.035 36.3585 34.5033 36.4445 34.9762Z" fill="#BA2B43"/>
</svg>
