<svg width="110" height="110" viewBox="0 0 110 110" fill="none" xmlns="http://www.w3.org/2000/svg">
<path d="M71.7578 75.7324C75.4316 75.7324 78.418 72.7461 78.418 69.0723C78.418 65.3984 75.4316 62.4121 71.7578 62.4121C68.084 62.4121 65.0977 65.3984 65.0977 69.0723C65.0977 72.7461 68.084 75.7324 71.7578 75.7324ZM71.7578 65.4199C73.7773 65.4199 75.4102 67.0527 75.4102 69.0723C75.4102 71.0918 73.7773 72.7246 71.7578 72.7246C69.7383 72.7246 68.1055 71.0918 68.1055 69.0723C68.1055 67.0527 69.7383 65.4199 71.7578 65.4199Z" fill="#FC012A"/>
<path d="M88.0215 7.47656H21.9785C21.1406 7.47656 20.4746 8.14258 20.4746 8.98047V35.6641C17.209 36.0508 14.6953 38.8438 14.6953 42.1953V95.9063C14.6953 99.5371 17.6602 102.502 21.291 102.502H88.752C92.3828 102.502 95.3477 99.5371 95.3477 95.9063V80.7383V80.7168V57.4063V57.3848V42.2168C95.3477 38.8438 92.8125 36.0723 89.5684 35.6855V8.98047C89.5254 8.16406 88.8594 7.47656 88.0215 7.47656ZM23.4824 10.4844H86.5391V35.6211H78.2031C78.2461 35.5352 78.3106 35.4707 78.3535 35.4063C78.375 35.3848 78.375 35.3633 78.3965 35.3418C78.4395 35.2773 78.5039 35.2129 78.5684 35.1484C78.5898 35.127 78.5898 35.1055 78.6113 35.1055C78.6758 35.041 78.7617 34.9551 78.8262 34.8906C78.8477 34.8691 78.8691 34.8691 78.8691 34.8477C78.9336 34.7832 78.998 34.7402 79.0625 34.6973C79.084 34.6758 79.1055 34.6758 79.127 34.6543C79.2129 34.5898 79.2988 34.5469 79.3848 34.4824C79.4062 34.4824 79.4277 34.4609 79.4277 34.4609C79.4922 34.418 79.5781 34.375 79.6426 34.332C79.6641 34.3105 79.6855 34.3105 79.707 34.2891C79.793 34.2461 79.9004 34.2031 79.9863 34.1602C80.0078 34.1602 80.0078 34.1602 80.0293 34.1387C80.1152 34.1172 80.2012 34.0742 80.2871 34.0527C80.3086 34.0527 80.3301 34.0312 80.373 34.0312C80.4805 34.0098 80.5664 33.9883 80.6738 33.9668H80.6953C80.7812 33.9453 80.8887 33.9453 80.9746 33.9238C80.9961 33.9238 81.0391 33.9238 81.0605 33.9238C81.168 33.9238 81.2754 33.9023 81.3828 33.9023H82.6504C83.4883 33.9023 84.1543 33.2363 84.1543 32.3984V20.9688C84.1543 20.1309 83.4883 19.4648 82.6504 19.4648H81.3828C79.9219 19.4648 78.5898 18.6484 77.9453 17.3379C77.666 16.8008 77.5371 16.2207 77.5371 15.6191V14.3516C77.5371 13.5137 76.8711 12.8477 76.0332 12.8477H33.9453C33.1074 12.8477 32.4414 13.5137 32.4414 14.3516V15.6191C32.4414 17.0371 31.668 18.3262 30.4219 19.0137C29.8418 19.3145 29.2402 19.4863 28.5742 19.4863H27.3066C26.4687 19.4863 25.8027 20.1523 25.8027 20.9902V32.4414C25.8027 33.2793 26.4687 33.9453 27.3066 33.9453H28.5742C28.6816 33.9453 28.7891 33.9453 28.8965 33.9668C28.918 33.9668 28.9609 33.9668 28.9824 33.9668C29.0898 33.9668 29.1758 33.9883 29.2617 34.0098H29.2832C29.3906 34.0313 29.4766 34.0527 29.584 34.0742C29.6055 34.0742 29.627 34.0957 29.6699 34.0957C29.7559 34.1172 29.8418 34.1602 29.9277 34.1816C29.9492 34.1816 29.9492 34.1816 29.9707 34.2031C30.0566 34.2461 30.1641 34.2891 30.25 34.332C30.2715 34.3535 30.293 34.3535 30.3145 34.375C30.4004 34.418 30.4648 34.4609 30.5293 34.5039C30.5508 34.5039 30.5723 34.5254 30.5723 34.5254C30.6582 34.5684 30.7441 34.6328 30.8301 34.6973C30.8516 34.7188 30.873 34.7188 30.8945 34.7402C30.959 34.7832 31.0234 34.8477 31.0879 34.8906C31.1094 34.9121 31.1309 34.9121 31.1309 34.9336C31.1953 34.998 31.2812 35.0625 31.3457 35.1484C31.3672 35.1699 31.3672 35.1914 31.3887 35.1914C31.4531 35.2559 31.4961 35.3203 31.5605 35.3848C31.582 35.4062 31.582 35.4277 31.6035 35.4492C31.668 35.5137 31.7109 35.5996 31.7539 35.6641H23.4395V10.4844H23.4824ZM35.1055 35.6211C35.1055 35.5996 35.084 35.5996 35.084 35.5781C35.041 35.4277 34.9766 35.2773 34.9121 35.127C34.9121 35.127 34.9121 35.1055 34.8906 35.1055C34.8262 34.9551 34.7617 34.8262 34.6973 34.6973C34.6973 34.6758 34.6758 34.6543 34.6758 34.6543C34.6113 34.5254 34.5254 34.375 34.4609 34.2461C34.4395 34.2246 34.4395 34.2031 34.418 34.1816C34.332 34.0527 34.2461 33.9238 34.1602 33.7949C34.1387 33.7734 34.1387 33.752 34.1172 33.7305C33.9238 33.4727 33.7305 33.2363 33.5156 33C33.4941 32.9785 33.4941 32.957 33.4727 32.957C33.3652 32.8496 33.2578 32.7422 33.1504 32.6563C33.1289 32.6348 33.1074 32.6133 33.0859 32.5918C32.9785 32.4844 32.8496 32.3984 32.7422 32.3125C32.7207 32.291 32.7207 32.291 32.6992 32.2695C32.5703 32.1836 32.4629 32.0977 32.334 32.0117L32.3125 31.9902C32.1836 31.9043 32.0547 31.8398 31.9258 31.7539C31.9043 31.7324 31.8828 31.7324 31.8613 31.7109C31.7324 31.6465 31.6035 31.582 31.4531 31.5176C31.4316 31.4961 31.4102 31.4961 31.3887 31.4746C31.2383 31.4102 31.1094 31.3457 30.959 31.3027C30.9375 31.3027 30.9375 31.3027 30.916 31.2813C30.7656 31.2383 30.6367 31.1738 30.4863 31.1523C30.4648 31.1523 30.4434 31.1309 30.4219 31.1309C30.2715 31.0879 30.1211 31.0449 29.9707 31.0234C29.9492 31.0234 29.9063 31.002 29.8848 31.002C29.7344 30.9805 29.584 30.959 29.4336 30.9375C29.4121 30.9375 29.3906 30.9375 29.3477 30.9375C29.1758 30.916 29.0254 30.916 28.8535 30.8945V22.4512C29.9062 22.4082 30.959 22.1289 31.8828 21.6133C34.0312 20.4531 35.3848 18.2402 35.4707 15.834H74.5723C74.6152 16.8223 74.8516 17.7891 75.3027 18.6699C76.4414 20.9258 78.6758 22.3652 81.1895 22.4512V30.8945C81.0176 30.8945 80.8672 30.916 80.6953 30.9375C80.6738 30.9375 80.6523 30.9375 80.6309 30.9375C80.4805 30.959 80.3301 30.9805 80.1797 31.002C80.1582 31.002 80.1152 31.0234 80.0938 31.0234C79.9434 31.0449 79.793 31.0879 79.6426 31.1309C79.6211 31.1309 79.5996 31.1523 79.5781 31.1523C79.4277 31.1953 79.2773 31.2383 79.1484 31.3027H79.127C78.9766 31.3457 78.8262 31.4102 78.6973 31.4746C78.6758 31.4746 78.6543 31.4961 78.6328 31.4961C78.5039 31.5605 78.3535 31.625 78.2246 31.6895C78.2031 31.7109 78.1816 31.7109 78.1602 31.7324C78.0312 31.7969 77.9023 31.8828 77.752 31.9688L77.7305 31.9902C77.6016 32.0762 77.4727 32.1621 77.3652 32.248C77.3438 32.2695 77.3438 32.2695 77.3223 32.291C77.1934 32.377 77.0859 32.4844 76.9785 32.5703C76.957 32.5918 76.9355 32.6133 76.9141 32.6348C76.8066 32.7422 76.6992 32.8281 76.5918 32.9355C76.5703 32.957 76.5488 32.9785 76.5488 32.9785C76.4414 33.0859 76.334 33.2148 76.2266 33.3223C76.1191 33.4512 76.0332 33.5586 75.9473 33.6875C75.9258 33.709 75.9258 33.7305 75.9043 33.752C75.8184 33.8809 75.7324 33.9883 75.6465 34.1172C75.625 34.1387 75.625 34.1602 75.6035 34.2031C75.5176 34.332 75.4531 34.4609 75.3887 34.5898C75.3887 34.6113 75.3672 34.6328 75.3672 34.6543C75.3027 34.7832 75.2383 34.9121 75.1738 35.0625C75.1738 35.084 75.1523 35.084 75.1523 35.1055C75.0879 35.2559 75.0449 35.3848 75.002 35.5352C75.002 35.5566 74.9805 35.5781 74.9805 35.5781H35.1055V35.6211ZM92.3184 79.2344H62.8203C62.0898 79.2344 61.5098 78.6543 61.5098 77.9238V60.1992C61.5098 59.4688 62.0898 58.8887 62.8203 58.8887H92.2969V79.2344H92.3184ZM92.3184 42.2168V55.9023H62.8203C60.4355 55.9023 58.502 57.8359 58.502 60.2207V77.9453C58.502 80.3301 60.4355 82.2637 62.8203 82.2637H92.2969V95.9492C92.2969 97.9258 90.6855 99.5371 88.709 99.5371H21.2695C19.293 99.5371 17.6816 97.9258 17.6816 95.9492V42.2383C17.6816 40.2617 19.293 38.6504 21.2695 38.6504H21.9785H33.9023H76.0977H88.0215H88.7305C90.707 38.6289 92.3184 40.2402 92.3184 42.2168Z" fill="#FC012A"/>
<path d="M39.252 22.1504C36.7598 22.1504 34.7188 24.1914 34.7188 26.6836C34.7188 28.3809 35.6641 29.9277 37.168 30.7012C37.8125 31.0449 38.5215 31.2168 39.252 31.2168C40.8418 31.2168 42.3242 30.3789 43.1406 29.0039C43.1621 28.9824 43.1621 28.9609 43.1836 28.9395C43.5703 28.252 43.7852 27.4785 43.7852 26.6836C43.8066 24.1914 41.7656 22.1504 39.252 22.1504ZM40.6055 27.3926C40.6055 27.4141 40.584 27.4141 40.584 27.4355C40.3047 27.9082 39.8105 28.209 39.252 28.209C39.0156 28.209 38.7793 28.1445 38.543 28.0371C38.0273 27.7793 37.7266 27.2637 37.7266 26.6836C37.7266 25.8457 38.4141 25.1582 39.252 25.1582C40.0898 25.1582 40.7773 25.8457 40.7773 26.6836C40.7988 26.9414 40.7344 27.1777 40.6055 27.3926Z" fill="#FC012A"/>
<path d="M71.0059 22.1504C68.5137 22.1504 66.4727 24.1914 66.4727 26.6836C66.4727 29.1758 68.5137 31.2168 71.0059 31.2168C73.498 31.2168 75.5391 29.1758 75.5391 26.6836C75.5391 24.1914 73.498 22.1504 71.0059 22.1504ZM71.0059 28.209C70.168 28.209 69.4805 27.5215 69.4805 26.6836C69.4805 25.8457 70.168 25.1582 71.0059 25.1582C71.8438 25.1582 72.5313 25.8457 72.5313 26.6836C72.5313 27.5215 71.8438 28.209 71.0059 28.209Z" fill="#FC012A"/>
<path d="M55.9023 25.3945V21.8926C56.5254 22.043 57.1484 22.3223 57.7715 22.6875C57.9648 22.7949 58.1367 22.8594 58.3301 22.8594C58.8887 22.8594 59.3613 22.4297 59.3613 21.8496C59.3613 21.4199 59.1035 21.1406 58.8027 20.9687C57.9648 20.4316 57.041 20.0879 55.9668 19.959V19.5508C55.9668 19.1211 55.623 18.7559 55.1719 18.7559C54.7207 18.7559 54.377 19.0996 54.377 19.5508V19.9375C52.0996 20.1309 50.5527 21.4629 50.5527 23.418C50.5527 24.2559 50.7676 24.9219 51.1758 25.459C51.7988 26.2539 52.873 26.7695 54.4629 27.1777V30.7656C53.4531 30.5723 52.6152 30.1641 51.7559 29.541C51.584 29.4121 51.3691 29.3477 51.1543 29.3477C50.5957 29.3477 50.1445 29.7773 50.1445 30.3574C50.1445 30.7441 50.3379 31.0234 50.6387 31.2383C51.7559 32.0332 53.002 32.5059 54.377 32.6562V33.7949C54.377 34.2246 54.7422 34.5898 55.1719 34.5898C55.6016 34.5898 55.9668 34.2461 55.9668 33.7949V32.6992C58.2871 32.4844 59.8555 31.1523 59.8555 29.1328C59.8555 27.1992 58.6738 26.082 55.9023 25.3945Z" fill="#FC012A"/>
</svg>
