<svg width="110" height="110" viewBox="0 0 110 110" fill="none" xmlns="http://www.w3.org/2000/svg">
<path d="M91.0938 10.3125H70.6131V13.75H91.0938C92.0425 13.75 92.8125 14.5234 92.8125 15.4688V101.406C92.8125 102.352 92.0425 103.125 91.0938 103.125H18.9062C17.9575 103.125 17.1875 102.352 17.1875 101.406V15.4688C17.1875 14.5234 17.9575 13.75 18.9062 13.75H39.5312V10.3125H18.9062C16.0634 10.3125 13.75 12.6259 13.75 15.4688V101.406C13.75 104.249 16.0634 106.562 18.9062 106.562H91.0938C93.9366 106.562 96.25 104.249 96.25 101.406V15.4688C96.25 12.6259 93.9366 10.3125 91.0938 10.3125Z" fill="#FC012A"/>
<path d="M87.6562 75.625C86.7075 75.625 85.9375 74.855 85.9375 73.9062V20.625H77.3438C76.395 20.625 75.625 19.855 75.625 18.9062C75.625 17.9575 76.395 17.1875 77.3438 17.1875H87.6562C88.605 17.1875 89.375 17.9575 89.375 18.9062V73.9062C89.375 74.855 88.605 75.625 87.6562 75.625Z" fill="#FC012A"/>
<path d="M70.4688 99.6875H22.3438C21.395 99.6875 20.625 98.9175 20.625 97.9688V18.9062C20.625 17.9575 21.395 17.1875 22.3438 17.1875H32.6562C33.605 17.1875 34.375 17.9575 34.375 18.9062C34.375 19.855 33.605 20.625 32.6562 20.625H24.0625V96.25H70.4688C71.4175 96.25 72.1875 97.02 72.1875 97.9688C72.1875 98.9175 71.4175 99.6875 70.4688 99.6875Z" fill="#FC012A"/>
<path d="M70.4688 99.6875C70.2487 99.6875 70.0253 99.6428 69.8122 99.5569C69.1694 99.2922 68.75 98.6631 68.75 97.9688V80.7812C68.75 79.8325 69.52 79.0625 70.4688 79.0625H87.6562C88.3506 79.0625 88.9797 79.4819 89.2444 80.1247C89.5125 80.7675 89.3647 81.5066 88.8731 81.9981L71.6856 99.1856C71.3556 99.5122 70.9156 99.6875 70.4688 99.6875ZM72.1875 82.5V93.8197L83.5072 82.5H72.1875Z" fill="#FC012A"/>
<path d="M33.1822 61.9299C33.1684 61.9299 33.1581 61.9299 33.1444 61.9299C32.6562 61.9196 32.1956 61.703 31.8794 61.3318L27.9159 56.7049C27.2972 55.9865 27.3797 54.9002 28.1015 54.2815C28.8234 53.6627 29.9097 53.7521 30.525 54.4705L33.244 57.6399L38.7097 51.8202C39.3594 51.1293 40.4456 51.0949 41.14 51.748C41.8344 52.4011 41.8653 53.4874 41.2156 54.1783L34.4369 61.3936C34.1103 61.734 33.6565 61.9299 33.1822 61.9299Z" fill="#FC012A"/>
<path d="M33.1822 44.7424C33.1684 44.7424 33.1581 44.7424 33.1444 44.7424C32.6562 44.7321 32.1956 44.5155 31.8794 44.1443L27.9159 39.5174C27.2972 38.799 27.3797 37.7127 28.1015 37.094C28.8234 36.4752 29.9097 36.5646 30.525 37.283L33.244 40.4524L38.7097 34.6327C39.3594 33.9418 40.4456 33.9074 41.14 34.5605C41.8344 35.2136 41.8653 36.2999 41.2156 36.9908L34.4369 44.2061C34.1103 44.5465 33.6565 44.7424 33.1822 44.7424Z" fill="#FC012A"/>
<path d="M60.1562 79.0625H46.4062C45.4575 79.0625 44.6875 78.2925 44.6875 77.3438C44.6875 76.395 45.4575 75.625 46.4062 75.625H60.1562C61.105 75.625 61.875 76.395 61.875 77.3438C61.875 78.2925 61.105 79.0625 60.1562 79.0625Z" fill="#FC012A"/>
<path d="M77.3438 72.1875H46.4062C45.4575 72.1875 44.6875 71.4175 44.6875 70.4688C44.6875 69.52 45.4575 68.75 46.4062 68.75H77.3438C78.2925 68.75 79.0625 69.52 79.0625 70.4688C79.0625 71.4175 78.2925 72.1875 77.3438 72.1875Z" fill="#FC012A"/>
<path d="M77.3438 55H67.0312C66.0825 55 65.3125 54.23 65.3125 53.2812C65.3125 52.3325 66.0825 51.5625 67.0312 51.5625H77.3438C78.2925 51.5625 79.0625 52.3325 79.0625 53.2812C79.0625 54.23 78.2925 55 77.3438 55Z" fill="#FC012A"/>
<path d="M70.4688 61.875H46.4062C45.4575 61.875 44.6875 61.105 44.6875 60.1562C44.6875 59.2075 45.4575 58.4375 46.4062 58.4375H70.4688C71.4175 58.4375 72.1875 59.2075 72.1875 60.1562C72.1875 61.105 71.4175 61.875 70.4688 61.875Z" fill="#FC012A"/>
<path d="M60.1562 55H46.4062C45.4575 55 44.6875 54.23 44.6875 53.2812C44.6875 52.3325 45.4575 51.5625 46.4062 51.5625H60.1562C61.105 51.5625 61.875 52.3325 61.875 53.2812C61.875 54.23 61.105 55 60.1562 55Z" fill="#FC012A"/>
<path d="M77.3438 37.8125H46.4062C45.4575 37.8125 44.6875 37.0425 44.6875 36.0938C44.6875 35.145 45.4575 34.375 46.4062 34.375H77.3438C78.2925 34.375 79.0625 35.145 79.0625 36.0938C79.0625 37.0425 78.2925 37.8125 77.3438 37.8125Z" fill="#FC012A"/>
<path d="M63.5938 44.6875H46.4062C45.4575 44.6875 44.6875 43.9175 44.6875 42.9688C44.6875 42.02 45.4575 41.25 46.4062 41.25H63.5938C64.5425 41.25 65.3125 42.02 65.3125 42.9688C65.3125 43.9175 64.5425 44.6875 63.5938 44.6875Z" fill="#FC012A"/>
<path d="M36.0938 79.0625H29.2188C28.27 79.0625 27.5 78.2925 27.5 77.3438V70.4688C27.5 69.52 28.27 68.75 29.2188 68.75H36.0938C37.0425 68.75 37.8125 69.52 37.8125 70.4688V77.3438C37.8125 78.2925 37.0425 79.0625 36.0938 79.0625ZM30.9375 75.625H34.375V72.1875H30.9375V75.625Z" fill="#FC012A"/>
<path d="M70.4688 24.0625H39.5312C38.5825 24.0625 37.8125 23.2925 37.8125 22.3438V12.0312C37.8125 9.18844 40.1259 6.875 42.9688 6.875C43.9175 6.875 44.6875 7.645 44.6875 8.59375C44.6875 9.5425 43.9175 10.3125 42.9688 10.3125C42.02 10.3125 41.25 11.0859 41.25 12.0312V20.625H68.75V12.0312C68.75 11.0859 67.98 10.3125 67.0312 10.3125C66.0825 10.3125 65.3125 9.5425 65.3125 8.59375C65.3125 7.645 66.0825 6.875 67.0312 6.875C69.8741 6.875 72.1875 9.18844 72.1875 12.0312V22.3438C72.1875 23.2925 71.4175 24.0625 70.4688 24.0625Z" fill="#FC012A"/>
<path d="M60.1562 10.3125C59.2075 10.3125 58.4375 9.5425 58.4375 8.59375C58.4375 7.64844 57.6675 6.875 56.7188 6.875H53.2812C52.91 6.875 52.5559 6.98844 52.2638 7.20844C51.8169 7.535 51.5625 8.04031 51.5625 8.59375C51.5625 9.5425 50.7925 10.3125 49.8438 10.3125C48.895 10.3125 48.125 9.5425 48.125 8.59375C48.125 6.96094 48.9088 5.41062 50.2184 4.44469C51.1053 3.78812 52.1675 3.4375 53.2812 3.4375H56.7188C59.5616 3.4375 61.875 5.75094 61.875 8.59375C61.875 9.5425 61.105 10.3125 60.1562 10.3125Z" fill="#FC012A"/>
</svg>
