<svg width="75" height="75" viewBox="0 0 75 75" fill="none" xmlns="http://www.w3.org/2000/svg">
<g clip-path="url(#clip0_131_3002)">
<path d="M35.9333 44.4569C35.5686 45.0308 35.738 45.7915 36.3119 46.1565C39.8382 48.3981 43.921 49.5828 48.1186 49.5828C48.1546 49.5828 48.1904 49.5803 48.226 49.5803C48.2355 49.5803 48.244 49.5828 48.2529 49.5828C48.2686 49.5828 48.2829 49.579 48.2984 49.5787C60.3661 49.4814 70.1546 39.6381 70.1546 27.5474C70.1546 15.4568 60.3665 5.61343 48.2984 5.51602C48.2829 5.51547 48.2686 5.51147 48.2529 5.51147C48.2437 5.51147 48.2351 5.5142 48.226 5.51438C48.1904 5.5142 48.1546 5.51147 48.1186 5.51147C40.0846 5.51147 32.6839 9.88704 28.8043 16.9308C28.4763 17.5263 28.6933 18.2749 29.2888 18.6029C29.8834 18.9306 30.6329 18.7145 30.9611 18.1186C34.2303 12.183 40.3142 8.38266 47.0217 8.00684V8.73032C47.0217 9.41 47.5727 9.96137 48.2526 9.96137C48.9326 9.96137 49.4836 9.41 49.4836 8.73032V8.02629C59.2343 8.70233 67.0395 16.5475 67.6491 26.3162H66.9523C66.2726 26.3162 65.7216 26.8674 65.7216 27.5472C65.7216 28.2269 66.2726 28.7781 66.9523 28.7781H67.6491C67.0395 38.5471 59.2343 46.3922 49.4836 47.068V46.3642C49.4836 45.6847 48.9326 45.1333 48.2526 45.1333C47.5727 45.1333 47.0217 45.6847 47.0217 46.3642V47.0875C43.6809 46.9019 40.4552 45.8729 37.6321 44.0783C37.0581 43.7127 36.2979 43.8832 35.9333 44.4569Z" fill="#BA2B43"/>
<path d="M48.0654 0C38.2548 0 29.1084 5.28278 24.1956 13.7875C23.8554 14.3761 24.0571 15.1292 24.6459 15.4692C25.2351 15.8103 25.9877 15.6081 26.3277 15.0193C30.8017 7.27365 39.1311 2.46193 48.0654 2.46193C61.8972 2.46193 73.1501 13.7148 73.1501 27.5468C73.1501 41.3786 61.8972 52.6315 48.0654 52.6315C43.8885 52.6315 39.7546 51.5847 36.1094 49.6049C35.5115 49.2798 34.7648 49.5015 34.4398 50.0992C34.1155 50.6966 34.3366 51.4439 34.934 51.7688C38.9384 53.9443 43.4792 55.0943 48.0654 55.0943C63.2546 55.0943 75.6124 42.7365 75.6124 27.5472C75.6124 12.3576 63.2546 0 48.0654 0Z" fill="#BA2B43"/>
<path d="M48.0661 22.8403C45.4707 22.8403 43.3594 24.9517 43.3594 27.5472C43.3594 30.1425 45.4707 32.2542 48.0661 32.2542C48.2712 32.2542 48.4717 32.2366 48.67 32.2111L55.4509 38.9921C56.0307 39.5717 56.7927 39.8617 57.5545 39.8617C58.3165 39.8617 59.0789 39.5717 59.6588 38.9917C60.221 38.4298 60.5304 37.6824 60.5304 36.8875C60.5304 36.0928 60.221 35.3453 59.6588 34.7835L55.1195 30.2442C54.6386 29.7634 53.8588 29.7634 53.3783 30.2442C52.8974 30.7249 52.8974 31.5046 53.3783 31.9851L57.9178 36.5245C58.0488 36.6552 58.0681 36.8081 58.0681 36.8873C58.0681 36.9669 58.0488 37.1199 57.9178 37.2504C57.7179 37.4512 57.3918 37.451 57.1919 37.2508L51.0905 31.1491C52.1178 30.285 52.7733 28.9916 52.7733 27.5472C52.7733 26.0797 52.0978 24.7677 51.0419 23.9038V14.4126C51.0419 12.7718 49.7073 11.4368 48.0664 11.4368C46.4257 11.4368 45.0911 12.7718 45.0911 14.4126V21.1375C45.0911 21.8173 45.6419 22.3685 46.3218 22.3685C47.0018 22.3685 47.5528 21.8173 47.5528 21.1375V14.4126C47.5528 14.1295 47.7831 13.8991 48.0661 13.8991C48.3494 13.8991 48.5795 14.1297 48.5795 14.4126V22.8695C48.4106 22.8514 48.2396 22.8403 48.0661 22.8403ZM50.3108 27.5472C50.3108 28.7851 49.3037 29.7923 48.0657 29.7923C46.8277 29.7923 45.8208 28.7851 45.8208 27.5472C45.8208 26.3094 46.8277 25.3022 48.0657 25.3022C49.3037 25.3024 50.3108 26.3096 50.3108 27.5472Z" fill="#BA2B43"/>
<path d="M23.5769 52.0868C22.9428 51.8422 22.2301 52.1575 21.9845 52.7911C21.7392 53.4251 22.0545 54.1382 22.6886 54.3838C31.0648 57.623 31.6916 68.9038 31.6698 72.539H1.86078C1.83915 68.9023 2.46631 57.623 10.842 54.3838C11.4761 54.1382 11.7912 53.4255 11.546 52.7911C11.3009 52.1572 10.5885 51.8419 9.95368 52.0868C-1.73752 56.6089 -0.61387 73.1614 -0.560259 73.8635C-0.511191 74.5055 0.0236469 75.0011 0.667161 75.0011H32.8632C33.5067 75.0011 34.0418 74.5055 34.0906 73.8635C34.1444 73.1614 35.2681 56.6089 23.5769 52.0868Z" fill="#BA2B43"/>
<path d="M16.7642 49.4076C25.8138 49.4076 33.1761 42.0447 33.1761 32.9954C33.1761 23.946 25.8138 16.5839 16.7642 16.5839C7.71488 16.5839 0.352539 23.946 0.352539 32.9954C0.352539 42.0447 7.7147 49.4076 16.7642 49.4076ZM16.7642 19.0463C24.4562 19.0463 30.714 25.3043 30.714 32.9957C30.714 40.6876 24.4562 46.9455 16.7642 46.9455C9.07242 46.9455 2.81465 40.6876 2.81465 32.9957C2.81465 25.3043 9.07242 19.0463 16.7642 19.0463Z" fill="#BA2B43"/>
</g>
<defs>
<clipPath id="clip0_131_3002">
<rect width="75" height="75" fill="white"/>
</clipPath>
</defs>
</svg>
