<svg width="18" height="22" viewBox="0 0 18 22" fill="none" xmlns="http://www.w3.org/2000/svg">
<path d="M14.7283 12.2925C14.0078 13.7527 13.0315 15.2075 12.0333 16.5138C11.0863 17.7452 10.0737 18.9248 9 20.0475C7.92624 18.9249 6.91369 17.7452 5.96675 16.5138C4.9685 15.2075 3.99225 13.7527 3.27175 12.2925C2.543 10.8171 2.125 9.43525 2.125 8.25C2.125 6.42664 2.84933 4.67795 4.13864 3.38864C5.42795 2.09933 7.17664 1.375 9 1.375C10.8234 1.375 12.572 2.09933 13.8614 3.38864C15.1507 4.67795 15.875 6.42664 15.875 8.25C15.875 9.43525 15.4556 10.8171 14.7283 12.2925ZM9 22C9 22 17.25 14.1818 17.25 8.25C17.25 6.06196 16.3808 3.96354 14.8336 2.41637C13.2865 0.869194 11.188 0 9 0C6.81196 0 4.71354 0.869194 3.16637 2.41637C1.61919 3.96354 0.75 6.06196 0.75 8.25C0.75 14.1818 9 22 9 22Z" fill="white"/>
<path d="M9 11C8.27065 11 7.57118 10.7103 7.05546 10.1945C6.53973 9.67882 6.25 8.97935 6.25 8.25C6.25 7.52065 6.53973 6.82118 7.05546 6.30546C7.57118 5.78973 8.27065 5.5 9 5.5C9.72935 5.5 10.4288 5.78973 10.9445 6.30546C11.4603 6.82118 11.75 7.52065 11.75 8.25C11.75 8.97935 11.4603 9.67882 10.9445 10.1945C10.4288 10.7103 9.72935 11 9 11ZM9 12.375C10.094 12.375 11.1432 11.9404 11.9168 11.1668C12.6904 10.3932 13.125 9.34402 13.125 8.25C13.125 7.15598 12.6904 6.10677 11.9168 5.33318C11.1432 4.5596 10.094 4.125 9 4.125C7.90598 4.125 6.85677 4.5596 6.08318 5.33318C5.3096 6.10677 4.875 7.15598 4.875 8.25C4.875 9.34402 5.3096 10.3932 6.08318 11.1668C6.85677 11.9404 7.90598 12.375 9 12.375V12.375Z" fill="white"/>
</svg>
