<svg width="41" height="116" viewBox="0 0 41 116" fill="none" xmlns="http://www.w3.org/2000/svg">
<rect x="2.5" y="2.5" width="36" height="69" rx="18" stroke="white" stroke-width="5"/>
<ellipse cx="20.5" cy="54" rx="12.5" ry="12" fill="white"/>
<path fill-rule="evenodd" clip-rule="evenodd" d="M21.0002 87.875C21.2488 87.875 21.4873 87.9738 21.6631 88.1496C21.8389 88.3254 21.9377 88.5639 21.9377 88.8125V110.924L27.8365 105.024C28.0125 104.848 28.2513 104.749 28.5002 104.749C28.7492 104.749 28.9879 104.848 29.164 105.024C29.34 105.2 29.4389 105.439 29.4389 105.688C29.4389 105.936 29.34 106.175 29.164 106.351L21.664 113.851C21.5769 113.939 21.4734 114.008 21.3595 114.055C21.2456 114.102 21.1235 114.127 21.0002 114.127C20.8769 114.127 20.7548 114.102 20.6409 114.055C20.527 114.008 20.4235 113.939 20.3365 113.851L12.8365 106.351C12.6604 106.175 12.5615 105.936 12.5615 105.688C12.5615 105.439 12.6604 105.2 12.8365 105.024C13.0125 104.848 13.2513 104.749 13.5002 104.749C13.7492 104.749 13.9879 104.848 14.164 105.024L20.0627 110.924V88.8125C20.0627 88.5639 20.1615 88.3254 20.3373 88.1496C20.5131 87.9738 20.7516 87.875 21.0002 87.875V87.875Z" fill="white"/>
</svg>
