<svg width="155" height="22" viewBox="0 0 155 22" fill="none" xmlns="http://www.w3.org/2000/svg">
<path d="M126.721 6.75321C126.263 7.59378 126.428 8.24714 126.424 8.87115C126.406 12.7693 126.395 16.6638 126.439 20.562C126.45 21.476 126.266 21.8871 125.249 21.8284C123.833 21.7439 122.408 21.7843 120.988 21.8174C120.316 21.832 120.004 21.6742 120.008 20.9107C120.037 14.2633 120.041 7.6158 120.015 0.96834C120.015 0.204855 120.316 0.0506894 120.984 0.0580306C123.642 0.0800542 126.303 0.0947366 128.96 0.0470188C129.709 0.0323364 129.981 0.436103 130.286 0.975681C132.337 4.60224 134.408 8.22145 136.474 11.8407C136.786 12.3876 137.117 12.9198 137.542 13.6282C139.179 10.8092 140.739 8.12601 142.296 5.44647C143.191 3.90115 144.113 2.37051 144.972 0.803163C145.276 0.248902 145.64 0.05436 146.264 0.0617012C148.829 0.0947366 151.399 0.102078 153.965 0.0617012C154.746 0.0470188 154.996 0.289279 154.992 1.06745C154.974 7.66719 154.978 14.2706 155 20.8703C155 21.5641 154.809 21.8504 154.067 21.821C152.647 21.7696 151.223 21.7439 149.806 21.8284C148.84 21.8871 148.569 21.6008 148.58 20.6244C148.635 16.4069 148.605 12.1894 148.605 7.97185C148.605 7.61947 148.605 7.26709 148.341 6.82295C147.357 8.48573 146.363 10.1448 145.394 11.8186C143.669 14.7882 141.932 17.7503 140.262 20.7492C139.836 21.5164 139.348 21.7146 138.482 21.8577C135.971 22.2688 134.764 21.1126 133.67 18.991C131.556 14.8909 129.126 10.956 126.714 6.75321H126.721Z" fill="#FB012A"/>
<path d="M41.5488 15.6506C43.6594 11.8369 45.6305 8.28007 47.6017 4.72325C48.1119 3.80193 48.7579 2.932 49.1139 1.95929C49.6976 0.373592 50.6996 -0.158645 52.3441 0.0395672C53.6104 0.190062 54.9062 0.087285 56.1909 0.068932C56.8883 0.0579202 57.1195 0.219427 56.7415 0.927853C53.1406 7.66708 49.5544 14.421 45.9682 21.1712C45.737 21.608 45.4544 21.8356 44.9038 21.8246C42.7491 21.7879 40.5945 21.7879 38.4435 21.8246C37.7938 21.8356 37.4928 21.575 37.2028 21.0207C33.7708 14.4503 30.3241 7.88364 26.8407 1.33896C26.3379 0.391945 26.2461 -0.0154918 27.5455 0.050579C29.0982 0.131332 30.6618 0.12032 32.2182 0.050579C33.0734 0.013873 33.5176 0.311192 33.9066 1.07101C36.1567 5.47206 38.4582 9.84741 40.7486 14.2264C40.9579 14.6229 41.1891 15.0083 41.5525 15.6506H41.5488Z" fill="#FD012A"/>
<path d="M87.1375 10.886C87.1375 7.67786 87.1705 4.46975 87.1191 1.26532C87.1045 0.288936 87.4238 0.00262869 88.3745 0.0540171C89.7913 0.1311 91.2192 0.13477 92.6324 0.0466759C93.6418 -0.0157243 93.8473 0.37703 93.84 1.29835C93.7996 5.92698 93.8657 10.5519 93.796 15.1806C93.7776 16.3478 94.119 16.6305 95.2495 16.6121C99.144 16.5424 103.039 16.6121 106.933 16.5607C107.843 16.5497 108.28 16.7185 108.185 17.7426C108.093 18.741 108.093 19.7615 108.181 20.7635C108.258 21.6665 107.895 21.817 107.091 21.8133C100.814 21.7876 94.5374 21.7803 88.2607 21.8244C87.3174 21.8317 87.1191 21.5013 87.1301 20.6424C87.1705 17.3903 87.1485 14.1381 87.1485 10.886H87.1448H87.1375Z" fill="#FD002A"/>
<path d="M116.425 11.0845C116.425 14.2449 116.374 17.4053 116.454 20.5656C116.48 21.6375 116.131 21.8871 115.137 21.8283C113.676 21.7476 112.204 21.7733 110.743 21.8136C110.034 21.8357 109.796 21.6228 109.8 20.8923C109.822 14.2522 109.822 7.61209 109.796 0.971967C109.796 0.226835 110.053 0.0433051 110.75 0.0616581C112.259 0.102035 113.775 0.113046 115.283 0.0433051C116.179 0.00292844 116.458 0.281894 116.443 1.18853C116.392 4.48473 116.425 7.7846 116.425 11.0808H116.432L116.425 11.0845Z" fill="#FE002A"/>
<path d="M17.9716 5.68341C18.6417 3.75792 19.2864 1.91057 19.9468 0.013122C18.8976 0.013122 17.9227 0.0391693 16.9478 0.00110025C16.5024 -0.0149288 16.3129 0.143358 16.1702 0.568129C15.6486 2.12295 15.0859 3.66575 14.535 5.21056C14.4471 5.455 14.4334 5.73952 14.0387 5.7295C13.0424 5.70345 12.044 5.72148 10.9734 5.72148C11.6396 3.79398 12.2843 1.93261 12.9486 0.013122C11.8721 0.013122 10.8952 0.0391693 9.92228 0.00110025C9.50028 -0.0149288 9.33616 0.143359 9.20527 0.53006C8.66604 2.10692 8.07797 3.66575 7.54657 5.24462C7.41762 5.6233 7.24765 5.73952 6.87058 5.7315C5.87028 5.70746 4.86998 5.72148 3.86773 5.72349C3.63328 5.72349 3.37539 5.65536 3.26013 5.98596C2.89869 7.03186 2.52748 8.07375 2.13674 9.18176H6.18288C5.81558 10.2697 5.45805 11.2976 5.12396 12.3335C5.01846 12.6661 4.78793 12.634 4.54371 12.634C3.56686 12.634 2.59 12.6461 1.6151 12.628C1.27906 12.622 1.09346 12.6961 0.978191 13.0648C0.712487 13.9184 0.411615 14.7639 0.0794846 15.5934C-0.0885345 16.0122 0.00328995 16.1043 0.417477 16.0983C1.53305 16.0783 2.64861 16.0923 3.83452 16.0923C3.22691 17.8295 2.65838 19.4965 2.05273 21.1495C1.87299 21.6384 1.85931 21.8548 2.47473 21.8127C3.20347 21.7606 3.94392 21.7406 4.66875 21.8187C5.29003 21.8848 5.5108 21.6023 5.68859 21.0673C6.19264 19.5566 6.75727 18.0679 7.25937 16.5571C7.37464 16.2125 7.5114 16.0783 7.86307 16.0863C8.81452 16.1063 9.76598 16.0923 10.821 16.0923C10.1509 18.0218 9.50809 19.8692 8.83797 21.8007C9.93009 21.8007 10.9245 21.7766 11.917 21.8127C12.3117 21.8267 12.4641 21.6644 12.5813 21.3198C13.0638 19.9072 13.6187 18.5187 14.0427 17.0901C14.2791 16.2947 14.6288 16.0041 15.4591 16.0683C16.4223 16.1424 17.6472 16.483 18.3056 15.94C18.9523 15.4051 19.0051 14.1428 19.3782 13.2251C19.6107 12.6541 19.386 12.62 18.9289 12.632C17.9774 12.6561 17.024 12.624 16.0726 12.6461C15.6935 12.6541 15.5998 12.5559 15.7326 12.1812C16.0237 11.3617 16.305 10.5382 16.5571 9.70672C16.6723 9.32603 16.8247 9.15371 17.2585 9.17375C18.208 9.21983 19.1614 9.19178 20.1128 9.17976C20.3121 9.17776 20.5583 9.28395 20.6657 8.97138C21.0369 7.90745 21.4179 6.84953 21.8282 5.69143H17.9657L17.9716 5.68341ZM12.1495 12.4277C12.0753 12.6561 11.9248 12.6641 11.7568 12.6641C10.7116 12.6681 9.66634 12.6641 8.53124 12.6641C8.90635 11.5461 9.26778 10.5002 9.60187 9.44624C9.6976 9.1457 9.89688 9.17776 10.1137 9.17776C11.1121 9.17776 12.1085 9.17776 13.2319 9.17776C12.8509 10.3158 12.4895 11.3657 12.1476 12.4257L12.1495 12.4277Z" fill="white"/>
<path d="M85.5042 21.127C81.8923 14.3438 78.2731 7.56416 74.6759 0.77355C74.3639 0.182583 73.9602 0.0577827 73.3545 0.0651239C71.1558 0.0908181 68.9571 0.10183 66.7584 0.0577827C66.0684 0.0431003 65.7307 0.274348 65.3966 0.891009C62.5152 6.25009 59.5861 11.5835 56.6753 16.9279C55.8311 18.4805 54.9942 20.0369 54.0361 21.8024C55.6769 21.8024 57.1048 21.6372 58.4702 21.8428C60.5514 22.1548 61.8398 21.4023 62.5593 19.4863C62.952 18.4402 63.7192 18.1869 64.813 18.2162C67.6981 18.2933 70.5979 18.4145 73.4646 18.1795C75.7955 17.9887 77.3041 18.653 78.1116 20.8628C78.2731 21.2996 78.4493 21.8134 79.121 21.8098C81.294 21.7914 83.467 21.8024 85.7611 21.8024C85.6253 21.4537 85.5776 21.2849 85.4969 21.1307L85.5042 21.127ZM66.5786 13.004C66.0537 13.004 65.9252 12.7874 66.1711 12.3286C67.3898 10.0492 68.6084 7.76972 69.9445 5.2627C71.4128 7.94958 72.7342 10.3685 74.173 13.0003C71.4788 13.0003 69.0269 13.0003 66.5786 13.0003V13.004Z" fill="#FC012A"/>
</svg>
