<svg width="16" height="17" viewBox="0 0 16 17" fill="none" xmlns="http://www.w3.org/2000/svg">
<path d="M3.65447 2.29008C3.59544 2.21417 3.52092 2.15169 3.43587 2.10679C3.35082 2.06188 3.25719 2.03558 3.16119 2.02962C3.06519 2.02366 2.96902 2.03819 2.87907 2.07224C2.78912 2.10629 2.70744 2.15908 2.63947 2.2271L1.60547 3.26162C1.12247 3.74539 0.944471 4.43007 1.15547 5.03079C2.03121 7.51721 3.45577 9.77467 5.32347 11.6357C7.1854 13.5025 9.4439 14.9264 11.9315 15.8017C12.5325 16.0126 13.2175 15.8347 13.7015 15.352L14.7355 14.3184C14.8035 14.2505 14.8563 14.1689 14.8904 14.079C14.9245 13.989 14.939 13.8929 14.933 13.797C14.9271 13.701 14.9008 13.6074 14.8558 13.5224C14.8109 13.4374 14.7484 13.3629 14.6725 13.3039L12.3655 11.5108C12.2843 11.4479 12.19 11.4042 12.0895 11.3831C11.989 11.362 11.8851 11.3639 11.7855 11.3888L9.59547 11.9356C9.30315 12.0086 8.99689 12.0047 8.70652 11.9243C8.41614 11.8439 8.15154 11.6897 7.93847 11.4768L5.48247 9.02092C5.26924 8.80806 5.1148 8.54363 5.03418 8.25338C4.95357 7.96313 4.94954 7.65697 5.02247 7.3647L5.57047 5.17572C5.59538 5.07617 5.59734 4.97225 5.57621 4.87183C5.55507 4.7714 5.51139 4.67709 5.44847 4.596L3.65447 2.29008ZM1.88447 1.47346C2.05947 1.29849 2.2697 1.16273 2.50121 1.07521C2.73272 0.987678 2.98021 0.95038 3.22725 0.965789C3.47429 0.981198 3.71522 1.04896 3.93405 1.16458C4.15288 1.2802 4.3446 1.44102 4.49647 1.63638L6.29047 3.9413C6.61947 4.3641 6.73547 4.91485 6.60547 5.4346L6.05847 7.62358C6.03019 7.73695 6.03172 7.85571 6.06291 7.96833C6.0941 8.08094 6.15389 8.18358 6.23647 8.26628L8.69347 10.7221C8.77631 10.8048 8.87916 10.8647 8.99202 10.8959C9.10488 10.9271 9.22389 10.9285 9.33747 10.9L11.5265 10.3533C11.7831 10.2892 12.0509 10.2842 12.3098 10.3387C12.5686 10.3933 12.8116 10.5059 13.0205 10.6682L15.3265 12.4613C16.1555 13.106 16.2315 14.3304 15.4895 15.0711L14.4555 16.1046C13.7155 16.8443 12.6095 17.1691 11.5785 16.8063C8.93965 15.8782 6.54374 14.3683 4.56847 12.3883C2.58776 10.4143 1.07708 8.01985 0.148471 5.38263C-0.213529 4.35311 0.111471 3.24663 0.851471 2.50697L1.88547 1.47346H1.88447Z" fill="white"/>
</svg>
