<svg width="55" height="88" viewBox="0 0 55 88" fill="none" xmlns="http://www.w3.org/2000/svg">
<path fill-rule="evenodd" clip-rule="evenodd" d="M27.5 5.49796C25.3332 5.49796 23.1876 5.92475 21.1857 6.75395C19.1839 7.58315 17.3649 8.79853 15.8327 10.3307C14.3006 11.8629 13.0852 13.6818 12.256 15.6837C11.4268 17.6856 11 19.8311 11 21.998C11 24.1648 11.4268 26.3104 12.256 28.3122C13.0852 30.3141 14.3006 32.1331 15.8327 33.6652C17.3649 35.1974 19.1839 36.4128 21.1857 37.242C23.1876 38.0712 25.3332 38.498 27.5 38.498C31.8761 38.498 36.0729 36.7596 39.1673 33.6652C42.2616 30.5709 44 26.374 44 21.998C44 17.6219 42.2616 13.425 39.1673 10.3307C36.0729 7.23635 31.8761 5.49796 27.5 5.49796V5.49796ZM5.5 21.998C5.50039 17.7642 6.72241 13.6205 9.01942 10.064C11.3164 6.50755 14.5908 3.68941 18.4498 1.94775C22.3087 0.20609 26.5882 -0.385101 30.7748 0.245113C34.9614 0.875327 38.8772 2.70018 42.0524 5.50069C45.2276 8.30121 47.5273 11.9584 48.6755 16.0335C49.8237 20.1086 49.7717 24.4284 48.5257 28.4747C47.2797 32.5209 44.8926 36.1217 41.6509 38.845C38.4092 41.5682 34.4506 43.2982 30.25 43.8275V74.248C30.25 74.9773 29.9603 75.6768 29.4445 76.1925C28.9288 76.7082 28.2293 76.998 27.5 76.998C26.7707 76.998 26.0712 76.7082 25.5555 76.1925C25.0397 75.6768 24.75 74.9773 24.75 74.248V43.833C19.4313 43.1629 14.5403 40.5739 10.9957 36.5523C7.45108 32.5306 5.49682 27.3532 5.5 21.9925V21.998ZM19.2115 69.155C19.3308 69.8741 19.1597 70.6111 18.7358 71.2041C18.3119 71.7971 17.67 72.1975 16.951 72.3175C13.035 72.9665 9.911 73.94 7.8485 75.029C7.09084 75.3932 6.40226 75.8864 5.8135 76.4865C5.6804 76.6315 5.57424 76.7991 5.5 76.9815V76.998L5.511 77.042C5.53264 77.1059 5.56221 77.1669 5.599 77.2235C5.81608 77.5417 6.08576 77.8207 6.3965 78.0485C7.304 78.7635 8.789 79.5335 10.868 80.221C14.9985 81.596 20.878 82.498 27.5 82.498C34.122 82.498 40.0015 81.6015 44.132 80.221C46.211 79.528 47.696 78.7635 48.6035 78.0485C48.9161 77.821 49.1876 77.5421 49.4065 77.2235C49.4413 77.1666 49.469 77.1056 49.489 77.042L49.5 76.998V76.976C49.4258 76.7936 49.3196 76.626 49.1865 76.481C48.5974 75.8828 47.9088 75.3915 47.1515 75.029C45.0835 73.94 41.965 72.9665 38.049 72.3175C37.6842 72.268 37.3331 72.1459 37.0164 71.9582C36.6997 71.7706 36.4239 71.5212 36.2054 71.225C35.9868 70.9288 35.83 70.5917 35.7441 70.2338C35.6582 69.8758 35.6451 69.5043 35.7055 69.1412C35.7659 68.778 35.8986 68.4307 36.0957 68.1198C36.2928 67.809 36.5503 67.5408 36.853 67.3313C37.1557 67.1218 37.4973 66.9751 37.8577 66.9001C38.2181 66.8251 38.5899 66.8231 38.951 66.8945C43.186 67.593 46.937 68.6985 49.7145 70.1615C52.25 71.498 55 73.698 55 76.998C55 79.341 53.57 81.134 52.008 82.3715C50.413 83.6255 48.268 84.643 45.87 85.4405C41.041 87.052 34.5455 87.998 27.5 87.998C20.4545 87.998 13.959 87.052 9.13 85.4405C6.732 84.643 4.587 83.6255 2.992 82.3715C1.43 81.134 0 79.341 0 76.998C0 73.7035 2.75 71.498 5.2855 70.1615C8.063 68.6985 11.814 67.593 16.049 66.8945C16.7681 66.7752 17.5051 66.9463 18.0981 67.3702C18.6911 67.794 19.0916 68.436 19.2115 69.155Z" fill="white"/>
</svg>
