<svg width="482" height="109" viewBox="0 0 482 109" fill="none" xmlns="http://www.w3.org/2000/svg">
<path d="M241.983 33.109C241.228 34.4918 241.5 35.5667 241.494 36.5932C241.464 43.006 241.445 49.4128 241.518 55.8256C241.536 57.3292 241.234 58.0055 239.561 57.9089C237.231 57.77 234.888 57.8364 232.551 57.8908C231.446 57.9149 230.932 57.6553 230.939 56.3993C230.987 45.4637 230.993 34.5281 230.951 23.5925C230.951 22.3365 231.446 22.0828 232.545 22.0949C236.917 22.1312 241.294 22.1553 245.666 22.0768C246.898 22.0527 247.345 22.7169 247.846 23.6045C251.222 29.5705 254.627 35.5244 258.027 41.4783C258.54 42.378 259.084 43.2536 259.784 44.419C262.477 39.7815 265.044 35.3674 267.604 30.9594C269.077 28.4172 270.593 25.8991 272.006 23.3207C272.507 22.4089 273.105 22.0889 274.131 22.101C278.352 22.1553 282.579 22.1674 286.8 22.101C288.086 22.0768 288.497 22.4753 288.491 23.7555C288.461 34.6126 288.467 45.4758 288.503 56.3329C288.503 57.4741 288.189 57.9451 286.969 57.8968C284.632 57.8123 282.289 57.77 279.959 57.9089C278.37 58.0055 277.924 57.5345 277.942 55.9283C278.032 48.9901 277.984 42.052 277.984 35.1138C277.984 34.5341 277.984 33.9544 277.549 33.2238C275.931 35.9592 274.295 38.6886 272.7 41.4421C269.862 46.3272 267.006 51.2002 264.259 56.1336C263.558 57.3956 262.755 57.7217 261.33 57.9572C257.2 58.6335 255.213 56.7314 253.414 53.2412C249.935 46.4963 245.938 40.023 241.971 33.109H241.983Z" fill="#FB012A"/>
<path d="M294.36 64.3884C299.1 64.4549 303.87 64.0865 308.556 65.0587C313.84 66.1577 317.04 71.5198 315.766 76.7793C315.561 77.6368 315.06 77.5945 314.45 77.5885C311.738 77.5885 309.021 77.5643 306.31 77.6005C305.44 77.6126 304.873 77.4556 304.764 76.4472C304.553 74.4303 303.049 73.4884 301.352 73.4219C296.165 73.2166 290.954 72.8543 285.791 73.6333C282.917 74.068 281.872 75.2697 281.709 78.138C281.54 81.0666 281.528 84.0194 281.709 86.948C281.89 89.9008 283.527 91.4587 286.721 91.7425C291.455 92.1652 296.214 92.123 300.954 91.7305C303.285 91.5372 305.006 90.4382 305.108 87.8478C305.151 86.7125 305.742 86.7246 306.557 86.7306C309.269 86.7548 311.986 86.779 314.697 86.7186C315.712 86.7005 316.255 86.9118 316.171 88.0651C316.062 89.5687 316.201 91.0964 315.984 92.5759C315.325 97.1409 312.288 99.9307 307.125 100.39C298.176 101.187 289.203 101.217 280.254 100.402C275.091 99.9307 271.317 96.3801 270.834 91.2897C270.297 85.5894 270.206 79.8166 270.87 74.1284C271.589 68.0175 275.351 65.1553 282.386 64.636C283.738 64.5334 285.091 64.4126 286.449 64.3945C289.088 64.3582 291.727 64.3824 294.366 64.3824L294.36 64.3884Z" fill="#1C1C1C"/>
<path d="M195.197 64.7936C201.833 64.7936 208.475 64.8359 215.112 64.7635C216.627 64.7453 217.177 65.0412 217.165 66.7139C217.086 77.3476 217.098 87.9873 217.165 98.627C217.177 100.155 216.706 100.541 215.257 100.475C212.847 100.36 210.426 100.342 208.017 100.481C206.525 100.565 206.32 99.9977 206.332 98.6874C206.386 90.9944 206.314 83.2954 206.386 75.6024C206.404 73.9358 206.132 73.2535 204.212 73.3018C198.107 73.4467 191.99 73.4286 185.88 73.3018C184.128 73.2656 183.784 73.797 183.802 75.4455C183.893 83.1384 183.79 90.8374 183.881 98.5304C183.899 100.149 183.434 100.565 181.87 100.481C179.388 100.342 176.894 100.396 174.407 100.463C173.314 100.493 173.006 100.137 173.006 99.0557C173.036 88.1141 173.048 77.1785 172.981 66.2368C172.975 64.7091 173.76 64.7635 174.817 64.7695C181.604 64.7876 188.398 64.7816 195.185 64.7816V64.7997L195.197 64.7936Z" fill="#1C1C1C"/>
<path d="M364.423 64.7746C358.258 70.4206 352.666 75.6861 346.888 80.7463C345.203 82.2197 345.589 82.8175 347.051 84.001C353.319 89.0793 359.496 94.2663 365.703 99.4111C365.969 99.6285 366.223 99.8579 366.893 100.432C361.76 100.432 357.123 100.432 352.485 100.432C351.622 100.432 351.157 99.7613 350.601 99.3024C346.072 95.5465 341.507 91.8389 337.099 87.9501C335.403 86.4526 333.573 86.9478 331.767 86.9598C330.783 86.9659 331.121 87.9864 331.115 88.5963C331.085 91.9899 331.055 95.3895 331.127 98.7831C331.151 99.9727 330.982 100.534 329.594 100.474C326.961 100.359 324.31 100.401 321.671 100.456C320.723 100.474 320.379 100.244 320.379 99.2118C320.415 88.1977 320.409 77.1836 320.379 66.1635C320.379 65.0464 320.79 64.7505 321.846 64.7686C324.413 64.8229 326.979 64.8531 329.539 64.7505C330.922 64.6961 331.151 65.2939 331.127 66.4895C331.061 69.8107 331.151 73.1318 331.079 76.4469C331.049 77.7331 331.484 78.0713 332.758 78.1316C334.762 78.2283 336.278 77.721 337.764 76.2477C341.405 72.6427 345.239 69.231 349.007 65.7528C349.551 65.2456 350.058 64.7444 350.933 64.7565C355.209 64.7927 359.484 64.7746 364.435 64.7746H364.423Z" fill="#1C1C1C"/>
<path d="M101.867 47.7466C105.339 41.4726 108.582 35.6214 111.824 29.7701C112.664 28.2545 113.726 26.8234 114.312 25.2232C115.272 22.6146 116.921 21.739 119.626 22.0651C121.709 22.3127 123.841 22.1436 125.954 22.1134C127.101 22.0953 127.482 22.361 126.86 23.5264C120.936 34.613 115.037 45.7237 109.137 56.8284C108.757 57.5469 108.292 57.9213 107.386 57.9032C103.841 57.8428 100.297 57.8428 96.7583 57.9032C95.6895 57.9213 95.1944 57.4926 94.7173 56.5808C89.0714 45.772 83.4013 34.9692 77.6708 24.2027C76.8436 22.6448 76.6926 21.9745 78.8302 22.0832C81.3845 22.2161 83.9568 22.1979 86.5171 22.0832C87.9241 22.0228 88.6547 22.5119 89.2948 23.7619C92.9964 31.002 96.7825 38.1998 100.55 45.4036C100.895 46.0558 101.275 46.6898 101.873 47.7466H101.867Z" fill="#FD012A"/>
<path d="M269.046 64.7751C261.589 75.2277 254.482 85.2213 247.338 95.1847C243.256 100.873 237.484 101.501 231.167 100.505C230.37 100.378 230.171 100.07 230.183 99.3573C230.207 97.4008 230.25 95.4383 230.183 93.4819C230.153 92.4432 230.576 92.1957 231.524 92.2681C232.574 92.3466 233.631 92.2923 234.688 92.2923C237.387 92.2923 239.144 90.9095 240.575 88.156C236.795 89.3214 235.455 86.7309 233.806 84.545C229.084 78.3012 224.32 72.0877 219.58 65.856C219.404 65.6265 219.29 65.3609 218.97 64.7872C223.154 64.7872 227.097 64.7932 231.035 64.7872C232.067 64.7872 232.399 65.6145 232.876 66.2545C236.312 70.8317 239.73 75.4149 243.16 79.998C243.607 80.5898 244.084 81.1634 244.663 81.8881C248.268 76.6105 251.813 71.4959 255.273 66.327C256.016 65.2159 256.782 64.7087 258.171 64.751C261.607 64.8657 265.055 64.7872 269.053 64.7872L269.046 64.7751Z" fill="#1C1C1C"/>
<path d="M149.721 64.7746C155.832 64.7746 161.943 64.8108 168.054 64.7444C169.479 64.7263 170.113 65.0342 169.986 66.6103C169.817 68.7781 170.674 71.598 169.6 72.9567C168.446 74.4059 165.505 73.319 163.35 73.4095C161.242 73.5001 159.117 73.5364 157.015 73.3975C155.391 73.2888 155.005 73.8685 155.023 75.4264C155.101 83.1194 155.005 90.8123 155.095 98.5053C155.113 100.105 154.685 100.564 153.115 100.474C150.705 100.341 148.284 100.359 145.875 100.468C144.552 100.528 144.28 100.075 144.286 98.8253C144.341 91.1324 144.244 83.4394 144.353 75.7464C144.377 73.8624 143.876 73.2948 141.98 73.3794C138.363 73.5363 134.74 73.3673 131.123 73.4699C129.716 73.5062 129.269 73.0895 129.371 71.6886C129.492 69.9616 129.486 68.2165 129.371 66.4895C129.275 65.0644 129.8 64.7263 131.171 64.7444C137.354 64.8168 143.544 64.7746 149.727 64.7746H149.721Z" fill="#1C1C1C"/>
<path d="M176.864 39.9084C176.864 34.6308 176.918 29.3532 176.834 24.0817C176.81 22.4755 177.335 22.0045 178.899 22.089C181.23 22.2158 183.579 22.2218 185.904 22.0769C187.564 21.9743 187.902 22.6204 187.89 24.136C187.824 31.7505 187.932 39.3589 187.818 46.9734C187.788 48.8936 188.349 49.3586 190.209 49.3284C196.616 49.2137 203.023 49.3284 209.429 49.2439C210.927 49.2257 211.645 49.5035 211.488 51.1882C211.337 52.8307 211.337 54.5094 211.482 56.1579C211.609 57.6433 211.011 57.8909 209.689 57.8849C199.363 57.8426 189.037 57.8305 178.712 57.903C177.16 57.915 176.834 57.3716 176.852 55.9586C176.918 50.6085 176.882 45.2585 176.882 39.9084H176.876H176.864Z" fill="#FD002A"/>
<path d="M225.044 40.2342C225.044 45.4333 224.96 50.6324 225.092 55.8315C225.135 57.5948 224.561 58.0054 222.925 57.9088C220.521 57.7759 218.1 57.8182 215.697 57.8846C214.531 57.9208 214.139 57.5706 214.145 56.369C214.181 45.4454 214.181 34.5219 214.139 23.5984C214.139 22.3726 214.561 22.0706 215.709 22.1008C218.19 22.1672 220.684 22.1854 223.166 22.0706C224.64 22.0042 225.098 22.4631 225.074 23.9546C224.99 29.3771 225.044 34.8057 225.044 40.2282H225.056L225.044 40.2342Z" fill="#FE002A"/>
<path d="M55.5457 45.0898C57.6169 39.2868 59.6095 33.7194 61.6505 28.001C58.4079 28.001 55.3947 28.0795 52.3815 27.9647C51.0048 27.9164 50.419 28.3935 49.9782 29.6736C48.366 34.3594 46.6269 39.009 44.9241 43.6647C44.6523 44.4014 44.6101 45.2588 43.3903 45.2286C40.3107 45.1501 37.2251 45.2045 33.916 45.2045C35.9751 39.3955 37.9678 33.7858 40.0208 28.001C36.6937 28.001 33.6745 28.0795 30.6673 27.9647C29.363 27.9164 28.8558 28.3935 28.4512 29.5589C26.7846 34.3111 24.967 39.009 23.3246 43.7673C22.926 44.9086 22.4007 45.2588 21.2353 45.2347C18.1436 45.1622 15.0519 45.2045 11.9542 45.2105C11.2296 45.2105 10.4325 45.0052 10.0762 46.0016C8.95913 49.1536 7.81183 52.2936 6.60414 55.6329H19.1097C17.9745 58.9117 16.8695 62.0094 15.8369 65.1313C15.5108 66.1337 14.7983 66.0371 14.0435 66.0371C11.0243 66.0371 8.00506 66.0733 4.99188 66.019C3.95327 66.0009 3.37962 66.2243 3.02335 67.3353C2.20212 69.9077 1.2722 72.4559 0.245667 74.9559C-0.273638 76.2179 0.0101684 76.4957 1.29032 76.4775C4.73826 76.4172 8.18621 76.4594 11.8515 76.4594C9.97359 81.6948 8.2164 86.7187 6.34449 91.7004C5.78895 93.1738 5.74668 93.826 7.64879 93.6992C9.90113 93.5422 12.1897 93.4818 14.43 93.7173C16.3502 93.9165 17.0325 93.0651 17.582 91.4529C19.1399 86.8999 20.885 82.4133 22.4369 77.8603C22.7932 76.8217 23.2159 76.4172 24.3028 76.4413C27.2435 76.5017 30.1842 76.4594 33.445 76.4594C31.3738 82.2744 29.3872 87.8419 27.316 93.6629C30.6915 93.6629 33.765 93.5905 36.8326 93.6992C38.0523 93.7414 38.5233 93.2523 38.8856 92.2137C40.3771 87.9566 42.092 83.772 43.4024 79.4666C44.133 77.0693 45.2139 76.1937 47.7802 76.387C50.7572 76.6104 54.5433 77.6369 56.5782 76.0005C58.577 74.3882 58.74 70.584 59.8933 67.8184C60.6119 66.0975 59.9175 65.9948 58.5045 66.031C55.5638 66.1035 52.617 66.0069 49.6763 66.0733C48.5049 66.0975 48.215 65.8016 48.6256 64.6724C49.5253 62.2027 50.3949 59.7209 51.1738 57.2149C51.5301 56.0676 52.0011 55.5483 53.3416 55.6087C56.2763 55.7476 59.2231 55.6631 62.1638 55.6268C62.7797 55.6208 63.5406 55.9408 63.8727 54.9988C65.02 51.7924 66.1975 48.6041 67.4655 45.1139H55.5276L55.5457 45.0898ZM37.5511 65.4151C37.3217 66.1035 36.8567 66.1277 36.3374 66.1277C33.1068 66.1397 29.8763 66.1277 26.3679 66.1277C27.5273 62.7582 28.6444 59.6062 29.677 56.4299C29.9729 55.5242 30.5888 55.6208 31.2591 55.6208C34.3447 55.6208 37.4243 55.6208 40.8964 55.6208C39.7189 59.0506 38.6018 62.2148 37.5451 65.4091L37.5511 65.4151Z" fill="#1C1C1C"/>
<path d="M355.07 39.5769C357.075 38.6168 358.705 37.3608 359.43 35.2594C361.513 29.215 357.981 23.406 351.671 22.5546C350.107 22.3432 348.519 22.2466 346.942 22.2406C337.372 22.2104 327.795 22.2647 318.224 22.1923C316.557 22.1802 315.911 22.4519 315.929 24.354C316.038 34.8307 316.038 45.3074 315.929 55.7841C315.911 57.6802 316.563 57.9217 318.2 57.9096C328.604 57.8432 339.002 57.8975 349.406 57.8553C351.055 57.8492 352.727 57.6922 354.34 57.3662C357.401 56.7502 359.708 55.1863 360.626 51.9497C362.304 46.032 360.65 42.1735 355.07 39.5769V39.5769ZM331.067 30.2294C335.82 30.2294 340.566 30.2113 345.318 30.2415C347.709 30.2536 348.694 31.1473 348.718 33.1701C348.742 35.2836 347.836 36.1048 345.403 36.1169C342.685 36.135 339.974 36.1169 337.257 36.1169C334.244 36.1229 331.224 36.0867 328.211 36.1471C327.185 36.1652 326.798 35.9237 326.744 34.7945C326.52 30.2174 326.478 30.2234 331.067 30.2234V30.2294ZM346.327 49.794C343.392 49.8423 340.463 49.806 337.529 49.806C334.443 49.806 331.357 49.7517 328.278 49.8302C327.088 49.8604 326.774 49.4981 326.744 48.3206C326.605 43.3932 326.563 43.3932 331.369 43.3932C336.333 43.3932 341.297 43.3811 346.26 43.3932C348.833 43.3993 349.925 44.3594 349.932 46.5634C349.938 48.8278 348.959 49.7517 346.327 49.794V49.794Z" fill="#1C1C1C"/>
<path d="M126.624 73.0839C126.008 68.235 123.369 65.8921 118.484 65.0286C113.406 64.1289 108.261 64.4429 103.14 64.3644C98.6115 64.3221 94.0887 64.3463 89.572 64.6724C83.3282 65.1252 79.7716 68.1445 79.2221 73.6515C78.6424 79.4424 78.6907 85.2574 79.1315 91.0422C79.5602 96.6459 82.8874 99.967 88.5635 100.426C98.2734 101.205 108.001 101.169 117.711 100.396C122.699 99.9972 125.929 97.2316 126.588 92.262C127.433 85.9035 127.433 79.4484 126.618 73.0839H126.624ZM115.96 86.2054C115.755 89.8526 114.148 91.5192 110.477 91.7608C108.001 91.9238 105.507 91.791 103.02 91.791V91.803C100.61 91.803 98.1949 91.9057 95.7916 91.7789C92.0115 91.5857 90.2604 89.9191 90.0188 86.2235C89.8618 83.8263 89.8739 81.3988 90.043 79.0016C90.3026 75.3121 91.6794 73.7119 95.2964 73.4402C100.405 73.0658 105.55 73.0235 110.658 73.4583C114.384 73.7783 115.797 75.457 115.996 79.2008C116.117 81.5256 116.093 83.8746 115.96 86.1994V86.2054Z" fill="#1C1C1C"/>
<path d="M174.177 56.7555C168.235 45.5964 162.281 34.4434 156.363 23.2723C155.85 22.3001 155.186 22.0948 154.189 22.1069C150.572 22.1492 146.955 22.1673 143.338 22.0948C142.203 22.0707 141.648 22.4511 141.098 23.4656C136.358 32.2817 131.539 41.0555 126.751 49.8475C125.362 52.4017 123.985 54.962 122.409 57.8665C125.108 57.8665 127.457 57.5948 129.704 57.9329C133.127 58.4462 135.247 57.2083 136.43 54.0563C137.077 52.3353 138.339 51.9187 140.138 51.967C144.884 52.0938 149.655 52.293 154.371 51.9066C158.205 51.5926 160.687 52.6855 162.015 56.3207C162.281 57.0393 162.571 57.8846 163.676 57.8786C167.251 57.8484 170.825 57.8665 174.599 57.8665C174.376 57.2929 174.297 57.0151 174.165 56.7615L174.177 56.7555ZM143.043 43.3924C142.179 43.3924 141.968 43.0361 142.372 42.2813C144.377 38.5315 146.382 34.7816 148.58 30.6573C150.995 35.0775 153.169 39.0568 155.536 43.3864C151.104 43.3864 147.07 43.3864 143.043 43.3864V43.3924Z" fill="#FC012A"/>
<path d="M450.206 16.2638C450.86 15.8017 453.769 17.1582 454.298 17.3985C477.824 28.1362 488.455 56.8082 477.506 80.1725C475.888 83.6248 473.625 86.6779 471.356 89.7865C468.343 93.9078 464.662 96.9979 460.699 99.9439C459.875 100.557 458.918 100.99 458.02 101.507C454.645 101.666 451.366 102.561 447.977 102.709C438.348 103.126 429.263 101.385 421.578 95.3124C416.536 91.3315 412.94 86.0976 411.092 79.8102C408.379 70.588 409.391 61.6763 413.465 53.0935C416.754 46.163 421.796 40.5298 427.185 35.1628C434.005 28.3727 442.092 23.1203 449.271 16.7701C449.5 16.5668 449.74 16.3635 450.099 16.5409C450.113 16.7147 450.102 16.9032 450.154 17.0769C450.379 17.8346 450.273 16.9364 451.315 17.1212C452.117 17.2617 451.751 18.3447 452.054 17.3985C452.091 17.2802 451.825 17.2358 451.869 17.1212L450.206 16.2638ZM434.323 81.5697C445.164 81.6584 455.24 73.083 455.429 60.8261C455.606 49.1459 446.24 39.5059 434.859 39.4468C422.79 39.384 413.376 48.5988 413.332 60.5193C413.287 72.1183 422.676 81.5327 434.323 81.5697Z" fill="black"/>
<path d="M451.5 16.8183C451.455 16.9329 451.271 16.7998 451.869 17.0734C450.901 17.3543 451.563 16.7739 450.76 16.6335C449.714 16.4487 450.379 17.8311 450.154 17.0734C450.102 16.9034 450.113 16.7112 450.098 16.5374C449.74 16.36 449.5 16.567 449.27 16.7666C442.092 23.1168 434.005 28.3692 427.185 35.1593C421.796 40.5263 416.754 46.1594 413.465 53.09C409.391 61.6728 408.375 70.5845 411.092 79.8067C412.943 86.0941 416.54 91.328 421.578 95.3089C429.262 101.382 438.352 103.123 447.977 102.705C451.363 102.557 454.645 101.663 458.02 101.504C455.661 103.578 452.786 104.698 449.877 105.618C433.458 110.793 417.797 109.067 403.459 99.4488C390.832 90.9806 387.165 77.722 392.847 63.6096C396.354 54.8975 402.191 47.9669 409.273 41.9568C419.623 33.1707 430.963 25.7707 442.255 18.3006C444.454 16.8442 446.661 15.3953 449.097 13.7874C448.546 13.5434 448.202 13.3771 447.847 13.2403C446.879 12.8633 447.698 13.7363 448.282 13.4221C448.541 13.2816 448.251 12.9261 448.543 12.9372" fill="#FB012A"/>
<path d="M445.822 14.5966C436.763 19.9562 427.614 25.0127 418.825 30.6791C412.829 34.5417 406.9 38.5226 401.788 43.5385C395.117 50.0772 390.127 57.625 388.393 67.0062C388.238 67.8489 388.157 68.7102 387.883 69.516C385.181 54.1283 388.6 40.2599 399.245 28.6868C411.89 14.9366 427.714 10.7118 445.822 14.5966Z" fill="black"/>
<path d="M449.208 5.31678L450.244 2.91664C450.349 2.94557 450.454 2.9745 450.549 3.01772C451.587 3.4454 452.627 3.88501 453.652 4.31504C455.126 4.942 456.599 5.56896 458.074 6.20786C458.372 6.33517 458.676 6.43625 459.01 6.37037C459.26 6.32096 459.463 6.15687 459.654 5.99513C460.37 5.41964 461.083 4.83222 461.813 4.26631C462.276 3.91443 462.736 3.55061 463.268 3.29676C463.697 3.08797 464.15 2.93651 464.622 2.88056C464.865 2.85737 465.091 2.87471 465.301 2.99461C465.665 3.20802 465.816 3.5998 465.694 4.04571C465.576 4.45344 465.347 4.79643 465.129 5.13707C464.797 5.6492 464.361 6.07036 463.879 6.45083C462.958 7.17847 462.046 7.89182 461.109 8.59794C460.765 8.86424 460.626 9.16453 460.664 9.60372C460.885 11.9167 461.093 14.2201 461.29 16.5378C461.304 16.6094 461.285 16.7001 461.249 16.7692C460.756 17.9084 460.266 19.0597 459.773 20.199C459.722 20.3205 459.663 20.3323 459.556 20.2914C459.408 20.2337 459.301 20.1308 459.249 19.9923C459.152 19.751 459.052 19.4978 458.979 19.2518C458.444 17.6085 457.933 15.9604 457.365 14.3361C457.168 13.7796 456.855 13.2585 456.598 12.7137C456.553 12.6109 456.499 12.5225 456.44 12.4102C456.397 12.4434 456.351 12.4648 456.32 12.4957C454.951 13.4607 453.579 14.4138 452.21 15.3788C452.122 15.4335 452.108 15.4859 452.129 15.5934C452.221 16.059 452.325 16.5222 452.419 16.9998C452.513 17.4773 452.477 17.9187 452.159 18.3163C451.999 18.5091 451.803 18.647 451.556 18.7083C451.436 18.7319 451.308 18.7077 451.189 18.6691C450.989 18.597 450.837 18.4534 450.701 18.2693C449.654 16.7892 448.606 15.3091 447.559 13.829C447.474 13.7095 447.386 13.578 447.31 13.4441C447.227 13.2745 447.241 13.0979 447.389 12.9695C447.587 12.7815 447.785 12.5935 448 12.4271C448.289 12.1964 448.599 12.1973 448.92 12.3819C449.434 12.665 449.948 12.948 450.45 13.2334C450.533 13.2789 450.595 13.2791 450.669 13.2149C451.905 12.1397 453.141 11.0646 454.389 9.98705C454.475 9.92047 454.465 9.87272 454.423 9.78192C454.095 9.12714 453.579 8.64604 453.013 8.22446C451.777 7.29032 450.528 6.35854 449.294 5.43634C449.263 5.40523 449.222 5.38841 449.191 5.3573L449.208 5.31678Z" fill="#FB012A"/>
</svg>
