<svg width="110" height="110" viewBox="0 0 110 110" fill="none" xmlns="http://www.w3.org/2000/svg">
<path d="M96.25 96.25H63.5938C61.8337 96.25 60.005 95.3803 58.0663 94.4591C56.3613 93.6478 54.6012 92.8125 53.2812 92.8125H46.4062C45.4575 92.8125 44.6875 92.0425 44.6875 91.0938C44.6875 90.145 45.4575 89.375 46.4062 89.375H53.2812C55.3747 89.375 57.4922 90.3822 59.5409 91.355C61.05 92.07 62.6072 92.8125 63.5938 92.8125H96.25C98.1441 92.8125 99.6875 91.2725 99.6875 89.375C99.6875 87.4775 98.1441 85.9375 96.25 85.9375C95.3013 85.9375 94.5312 85.1675 94.5312 84.2188C94.5312 83.27 95.3013 82.5 96.25 82.5H97.9688C99.8628 82.5 101.406 80.96 101.406 79.0625C101.406 77.165 99.8628 75.625 97.9688 75.625C97.02 75.625 96.25 74.855 96.25 73.9062C96.25 72.9575 97.02 72.1875 97.9688 72.1875H99.6875C101.582 72.1875 103.125 70.6475 103.125 68.75C103.125 66.8525 101.582 65.3125 99.6875 65.3125H97.9688C97.02 65.3125 96.25 64.5425 96.25 63.5938C96.25 62.645 97.02 61.875 97.9688 61.875C99.8628 61.875 101.406 60.335 101.406 58.4375C101.406 56.54 99.8628 55 97.9688 55H65.2988C64.7694 55 64.2709 54.7559 63.9444 54.34C63.6178 53.9241 63.5044 53.3809 63.6316 52.8653C63.6453 52.7966 65.2988 46.0763 65.2988 38.0394C65.2988 29.0984 61.7272 27.7441 58.4341 27.5378V39.5312C58.4341 39.7959 58.3722 40.0606 58.2519 40.3013L51.1191 54.5634C50.6928 55.4091 49.665 55.7597 48.8125 55.3334C47.9634 54.9072 47.6197 53.8759 48.0425 53.0269L55 39.1256V25.7812C55 24.8325 55.77 24.0625 56.7188 24.0625C60.3144 24.0625 68.7397 24.0625 68.7397 38.0359C68.7397 43.8075 67.9525 48.8434 67.4266 51.5625H97.9688C101.76 51.5625 104.844 54.6459 104.844 58.4375C104.844 60.1184 104.235 61.6619 103.228 62.8581C105.225 64.0647 106.562 66.2509 106.562 68.75C106.562 71.2491 105.225 73.4353 103.228 74.6419C104.235 75.8381 104.844 77.3816 104.844 79.0625C104.844 81.5616 103.507 83.7478 101.509 84.9544C102.517 86.1506 103.125 87.6941 103.125 89.375C103.125 93.1666 100.042 96.25 96.25 96.25Z" fill="#FC012A"/>
<path d="M46.5816 96.25H34.375V92.8125H44.6875V61.875H34.375V58.4375H46.5816C47.5337 58.4375 48.125 59.1491 48.125 60.0944V94.4694C48.125 95.425 47.5337 96.25 46.5816 96.25Z" fill="#FC012A"/>
<path d="M5.33154 103.125C4.38279 103.125 3.61279 102.355 3.61279 101.406C3.61279 100.458 4.38279 99.6875 5.33154 99.6875H34.375V61.875H5.33154C4.38279 61.875 3.61279 61.105 3.61279 60.1562C3.61279 59.2075 4.38279 58.4375 5.33154 58.4375H36.269C37.2212 58.4375 37.8125 59.1491 37.8125 60.0944V101.344C37.8125 102.3 37.2212 103.125 36.269 103.125H5.33154Z" fill="#FC012A"/>
<path d="M99.6875 75.625H82.5C78.7084 75.625 75.625 72.5416 75.625 68.75C75.625 64.9584 78.7084 61.875 82.5 61.875H99.6875C103.479 61.875 106.562 64.9584 106.562 68.75C106.562 72.5416 103.479 75.625 99.6875 75.625ZM82.5 65.3125C80.6059 65.3125 79.0625 66.8525 79.0625 68.75C79.0625 70.6475 80.6059 72.1875 82.5 72.1875H99.6875C101.582 72.1875 103.125 70.6475 103.125 68.75C103.125 66.8525 101.582 65.3125 99.6875 65.3125H82.5Z" fill="#FC012A"/>
<path d="M96.25 96.25H85.9375C82.1459 96.25 79.0625 93.1666 79.0625 89.375C79.0625 85.5834 82.1459 82.5 85.9375 82.5H96.25C100.042 82.5 103.125 85.5834 103.125 89.375C103.125 93.1666 100.042 96.25 96.25 96.25ZM85.9375 85.9375C84.0434 85.9375 82.5 87.4775 82.5 89.375C82.5 91.2725 84.0434 92.8125 85.9375 92.8125H96.25C98.1441 92.8125 99.6875 91.2725 99.6875 89.375C99.6875 87.4775 98.1441 85.9375 96.25 85.9375H85.9375Z" fill="#FC012A"/>
<path d="M97.9688 85.9375H84.2188C80.4272 85.9375 77.3438 82.8541 77.3438 79.0625C77.3438 75.2709 80.4272 72.1875 84.2188 72.1875H97.9688C101.76 72.1875 104.844 75.2709 104.844 79.0625C104.844 82.8541 101.76 85.9375 97.9688 85.9375ZM84.2188 75.625C82.3247 75.625 80.7812 77.165 80.7812 79.0625C80.7812 80.96 82.3247 82.5 84.2188 82.5H97.9688C99.8628 82.5 101.406 80.96 101.406 79.0625C101.406 77.165 99.8628 75.625 97.9688 75.625H84.2188Z" fill="#FC012A"/>
<path d="M97.9688 65.3125H84.2188C80.4272 65.3125 77.3438 62.2291 77.3438 58.4375C77.3438 54.6459 80.4272 51.5625 84.2188 51.5625H97.9688C101.76 51.5625 104.844 54.6459 104.844 58.4375C104.844 62.2291 101.76 65.3125 97.9688 65.3125ZM84.2188 55C82.3247 55 80.7812 56.54 80.7812 58.4375C80.7812 60.335 82.3247 61.875 84.2188 61.875H97.9688C99.8628 61.875 101.406 60.335 101.406 58.4375C101.406 56.54 99.8628 55 97.9688 55H84.2188Z" fill="#FC012A"/>
<path d="M60.5274 79.2472C59.747 79.2472 59.0389 78.7144 58.8567 77.9169C58.6402 76.9922 59.2142 76.0709 60.1389 75.8509C64.1264 74.9194 67.0242 71.4991 67.8939 66.7038C68.7739 61.8431 67.2649 56.8828 64.3052 54.9063C63.5145 54.3803 63.3014 53.3113 63.8274 52.5241C64.3499 51.7334 65.4155 51.5203 66.2095 52.0463C70.3895 54.8341 72.4245 60.97 71.2764 67.3156C70.1558 73.5031 66.2852 77.9444 60.9227 79.1991C60.7886 79.2334 60.658 79.2472 60.5274 79.2472Z" fill="#FC012A"/>
<path d="M69.2483 20.1412C69.7811 20.1412 70.3036 19.8971 70.6404 19.4331L74.6829 13.8712C75.2433 13.1012 75.0714 12.0287 74.3048 11.4718C73.5348 10.9149 72.4589 11.0799 71.9054 11.8499L67.8629 17.4118C67.3026 18.1818 67.4745 19.2543 68.2411 19.8112C68.5436 20.0346 68.8942 20.1412 69.2483 20.1412Z" fill="#FC012A"/>
<path d="M73.2324 26.6889C73.4696 27.4176 74.1433 27.8782 74.8686 27.8782C75.044 27.8782 75.2227 27.8507 75.398 27.7957L81.9361 25.6714C82.8402 25.3792 83.3352 24.4098 83.0396 23.5057C82.744 22.5982 81.7711 22.1067 80.874 22.4023L74.3358 24.5267C73.4352 24.8154 72.9402 25.7848 73.2324 26.6889Z" fill="#FC012A"/>
<path d="M47.0798 35.1854C46.7876 34.2779 45.8148 33.7864 44.9142 34.082L38.376 36.2064C37.472 36.4986 36.977 37.4679 37.2726 38.372C37.5098 39.1007 38.1835 39.5614 38.9088 39.5614C39.0842 39.5614 39.2629 39.5339 39.4382 39.4789L45.9763 37.3545C46.877 37.0589 47.372 36.0895 47.0798 35.1854Z" fill="#FC012A"/>
<path d="M81.9361 36.208L75.398 34.0836C74.494 33.788 73.528 34.283 73.2324 35.1871C72.9402 36.0911 73.4352 37.0605 74.3358 37.3527L80.874 39.4771C81.0493 39.5355 81.228 39.5596 81.4033 39.5596C82.1286 39.5596 82.8024 39.0989 83.0396 38.3702C83.3352 37.4696 82.8402 36.5002 81.9361 36.208Z" fill="#FC012A"/>
<path d="M38.376 25.6673L44.9142 27.7917C45.0895 27.8501 45.2682 27.8742 45.4435 27.8742C46.1688 27.8742 46.8426 27.4136 47.0798 26.6848C47.372 25.7808 46.877 24.8114 45.9763 24.5192L39.4382 22.3948C38.5376 22.1026 37.5682 22.5942 37.2726 23.4983C36.977 24.4058 37.472 25.3751 38.376 25.6673Z" fill="#FC012A"/>
<path d="M48.41 11.849C47.8531 11.0755 46.7772 10.914 46.0106 11.4708C45.244 12.0277 45.0722 13.1037 45.6325 13.8702L49.675 19.4321C50.0118 19.8962 50.5343 20.1402 51.0672 20.1402C51.4178 20.1402 51.7718 20.0337 52.0743 19.8102C52.8409 19.2533 53.0128 18.1774 52.4525 17.4108L48.41 11.849Z" fill="#FC012A"/>
<path d="M60.1562 6.875C59.2075 6.875 58.4375 7.645 58.4375 8.59375V15.4688C58.4375 16.4175 59.2075 17.1875 60.1562 17.1875C61.105 17.1875 61.875 16.4175 61.875 15.4688V8.59375C61.875 7.645 61.105 6.875 60.1562 6.875Z" fill="#FC012A"/>
</svg>
