<svg width="302" height="208" viewBox="0 0 302 208" fill="none" xmlns="http://www.w3.org/2000/svg">
<rect width="302" height="208" fill="#1C1C1C"/>
<mask id="mask0_188_5371" style="mask-type:alpha" maskUnits="userSpaceOnUse" x="0" y="0" width="302" height="208">
<rect width="302" height="208" fill="#1C1C1C"/>
</mask>
<g mask="url(#mask0_188_5371)">
<g opacity="0.1">
<path d="M87.2247 170.87C78.3272 171.98 69.0721 172.543 59.7153 172.543C7.17003 172.543 -37.2222 154.26 -37.2222 132.62C-37.2222 122.175 -26.5027 111.825 -7.81185 104.225C-6.16442 103.555 -5.37185 101.677 -6.04128 100.029C-6.71119 98.3807 -8.58968 97.5867 -10.2381 98.258C-31.7926 107.023 -43.6636 119.226 -43.6636 132.62C-43.6636 158.619 1.7461 178.984 59.7153 178.984C69.3379 178.984 78.8616 178.404 88.0221 177.262C89.7869 177.042 91.0397 175.432 90.8196 173.668C90.599 171.903 88.9839 170.649 87.2247 170.87Z" fill="white"/>
<path d="M145.328 151.019C136.495 157.857 123.306 163.491 107.184 167.311C105.453 167.721 104.383 169.457 104.793 171.188C105.144 172.669 106.466 173.667 107.925 173.667C108.171 173.667 108.421 173.638 108.67 173.579C125.677 169.548 139.717 163.508 149.271 156.112C150.677 155.023 150.935 153 149.846 151.594C148.758 150.187 146.735 149.93 145.328 151.019Z" fill="white"/>
<path d="M161.299 123.785C160.62 122.141 158.737 121.356 157.092 122.037C155.448 122.716 154.666 124.599 155.345 126.244C156.213 128.345 156.653 130.49 156.653 132.619C156.653 134.957 156.123 137.31 155.077 139.613C154.342 141.233 155.059 143.142 156.679 143.877C157.111 144.073 157.563 144.166 158.008 144.166C159.233 144.166 160.404 143.463 160.943 142.275C162.37 139.13 163.094 135.881 163.094 132.619C163.095 129.642 162.491 126.67 161.299 123.785Z" fill="white"/>
<path d="M149.272 109.129C146.967 107.344 144.363 105.614 141.532 103.986C139.988 103.098 138.02 103.63 137.134 105.173C136.247 106.715 136.778 108.684 138.321 109.57C140.898 111.052 143.255 112.617 145.329 114.223C145.915 114.677 146.609 114.897 147.298 114.897C148.26 114.897 149.212 114.467 149.847 113.647C150.936 112.241 150.678 110.219 149.272 109.129Z" fill="white"/>
<path d="M9.95345 120.576L58.1635 147.054C58.2191 147.085 58.2767 147.107 58.3333 147.133C58.3908 147.161 58.4469 147.191 58.5058 147.215C58.5928 147.25 58.6803 147.277 58.7688 147.304C58.8106 147.317 58.852 147.334 58.8948 147.345C59.0051 147.374 59.1168 147.395 59.2285 147.412C59.2523 147.415 59.2761 147.422 59.2994 147.425C59.4363 147.443 59.5742 147.453 59.7111 147.453C59.7121 147.453 59.713 147.453 59.714 147.453C59.7149 147.453 59.7159 147.453 59.7168 147.453C59.8537 147.453 59.9916 147.443 60.1286 147.425C60.1523 147.422 60.1761 147.415 60.1994 147.412C60.3111 147.395 60.4228 147.374 60.5332 147.345C60.5759 147.334 60.6173 147.317 60.6592 147.304C60.7476 147.277 60.8351 147.25 60.9221 147.215C60.981 147.191 61.0371 147.161 61.0947 147.133C61.1512 147.107 61.2088 147.085 61.2644 147.054L109.474 120.576C110.504 120.011 111.145 118.928 111.145 117.753V58.3999C111.145 58.3857 111.142 58.3723 111.142 58.3581C111.142 58.3438 111.144 58.3296 111.144 58.3153C111.142 58.2635 111.133 58.2131 111.129 58.1617C111.123 58.0819 111.118 58.002 111.106 57.9235C111.096 57.8579 111.081 57.7947 111.068 57.7305C111.052 57.6539 111.035 57.5779 111.014 57.5037C110.995 57.4405 110.973 57.3791 110.951 57.3173C110.925 57.2451 110.898 57.1728 110.867 57.1024C110.841 57.043 110.811 56.985 110.781 56.927C110.746 56.859 110.71 56.7915 110.67 56.7259C110.636 56.6702 110.601 56.617 110.563 56.5637C110.519 56.5005 110.474 56.4392 110.425 56.3793C110.384 56.3284 110.341 56.2789 110.297 56.2305C110.246 56.1743 110.192 56.1201 110.137 56.0674C110.088 56.0213 110.039 55.977 109.987 55.9338C109.93 55.8848 109.87 55.8396 109.807 55.7949C109.752 55.7545 109.696 55.7155 109.638 55.6785C109.612 55.6628 109.59 55.6433 109.564 55.6281C109.522 55.6038 109.478 55.5862 109.436 55.5634C109.398 55.543 109.363 55.5182 109.324 55.4992L61.1132 32.2393C60.2293 31.8123 59.1986 31.8123 58.3142 32.2393L10.1037 55.4992C10.0642 55.5182 10.0295 55.543 9.99148 55.5634C9.94917 55.5862 9.90495 55.6038 9.86358 55.6281C9.83743 55.6433 9.81509 55.6628 9.78989 55.6785C9.73141 55.7155 9.6753 55.7545 9.61968 55.7949C9.55787 55.8396 9.49749 55.8848 9.43948 55.9338C9.38813 55.977 9.33869 56.0217 9.29019 56.0674C9.23457 56.1197 9.18131 56.1743 9.12996 56.2305C9.08575 56.2794 9.04296 56.3284 9.0016 56.3793C8.9531 56.4392 8.90793 56.5005 8.86419 56.5637C8.82711 56.617 8.79097 56.6707 8.75721 56.7259C8.71728 56.7915 8.68067 56.859 8.64596 56.927C8.61601 56.985 8.58653 57.043 8.56038 57.1024C8.52947 57.1728 8.50285 57.2451 8.4767 57.3173C8.45483 57.3791 8.43248 57.4405 8.41394 57.5037C8.39254 57.5779 8.3759 57.6539 8.35974 57.7305C8.34595 57.7947 8.33121 57.8579 8.32123 57.9235C8.30934 58.002 8.30411 58.0819 8.29841 58.1617C8.2946 58.2131 8.28509 58.2635 8.28367 58.3153C8.28319 58.3296 8.28557 58.3438 8.28557 58.3581C8.28557 58.3723 8.28271 58.3861 8.28271 58.3999V117.753C8.28367 118.928 8.92362 120.011 9.95345 120.576ZM14.7251 63.8438L56.4937 86.7847V126.974C56.4937 128.753 57.9358 130.195 59.7144 130.195C61.4936 130.195 62.9351 128.753 62.9351 126.974V84.8786C62.9351 84.8121 62.9251 84.7484 62.9218 84.6828C62.9185 84.6309 62.9171 84.5796 62.9118 84.5282C62.9033 84.4531 62.8909 84.3794 62.8776 84.3053C62.8681 84.2544 62.8581 84.204 62.8472 84.1541C62.8348 84.1018 62.8258 84.048 62.811 83.9972C62.8034 83.971 62.7925 83.9463 62.7839 83.9201C62.7568 83.8327 62.7283 83.7456 62.6941 83.661C62.6879 83.6467 62.6841 83.6311 62.6784 83.6163C62.6584 83.5697 62.6318 83.5269 62.6094 83.4818C62.5871 83.4352 62.5647 83.39 62.54 83.3444C62.5025 83.275 62.462 83.207 62.4188 83.1399C62.3917 83.0971 62.3632 83.0562 62.3337 83.0154C62.3052 82.9749 62.2809 82.9322 62.2505 82.8936C62.2391 82.8789 62.2253 82.8656 62.2139 82.8509C62.1559 82.78 62.0931 82.7125 62.0289 82.6459C62.0118 82.6279 61.9971 82.6074 61.979 82.5898C61.9405 82.5518 61.8982 82.5185 61.8578 82.4819C61.8192 82.4477 61.7798 82.4139 61.7394 82.3816C61.6804 82.3331 61.621 82.287 61.5587 82.2432C61.5178 82.2142 61.476 82.19 61.4341 82.1633C61.3776 82.1272 61.3243 82.0873 61.2653 82.0545L18.5324 58.5844L59.7144 38.7163L100.896 58.5853L71.9863 74.4635C70.4273 75.3197 69.8572 77.2781 70.7135 78.8376C71.0235 79.4015 71.4794 79.8303 72.0067 80.1146C72.9367 80.6167 74.092 80.6562 75.0871 80.1099L104.703 63.8438V115.848L59.7144 140.557L14.7251 115.848V63.8438Z" fill="white"/>
<path d="M44.288 0.834541C46.2059 2.0826 48.0954 3.97346 49.904 6.45388C50.9519 7.89116 52.9673 8.2078 54.4041 7.15849C55.8414 6.1106 56.1571 4.09612 55.1092 2.65836C53.7209 0.753714 52.2622 -0.895145 50.7493 -2.27157C52.7538 -4.61363 55.6498 -8.28933 58.0237 -12.4642C59.3535 -9.05052 61.2905 -5.31492 64.0457 -2.37997C61.5363 1.17544 57.1441 8.12745 55.4658 15.3077C55.0607 17.0397 56.1371 18.7718 57.8692 19.1769C58.1155 19.2344 58.3622 19.262 58.6047 19.262C60.0672 19.262 61.3904 18.2588 61.7379 16.7735C63.7557 8.1422 70.8047 -0.685948 70.8746 -0.772004C71.4223 -1.44999 71.6715 -2.32102 71.5654 -3.18633C71.4594 -4.05165 71.0077 -4.83709 70.3131 -5.36294C63.79 -10.3043 61.8045 -22.6935 61.7855 -22.8143C61.5511 -24.3514 60.2517 -25.5011 58.6979 -25.5481C57.1413 -25.5981 55.7781 -24.524 55.4525 -23.0031C53.5825 -14.2786 43.8391 -4.21663 43.7422 -4.11774C43.0675 -3.42739 42.7375 -2.47126 42.8431 -1.51275C42.9486 -0.552821 43.4792 0.308694 44.288 0.834541Z" fill="white"/>
<path d="M121.423 43.1921C122.846 44.1178 124.266 45.4096 125.642 47.0313C126.793 48.3887 128.826 48.5556 130.181 47.4041C131.538 46.2535 131.705 44.2205 130.554 42.8645C129.688 41.8437 128.796 40.9156 127.884 40.086C129.889 37.7439 132.785 34.0682 135.158 29.8933C136.489 33.307 138.425 37.0426 141.18 39.9776C138.671 43.5335 134.278 50.485 132.601 57.6657C132.195 59.3973 133.272 61.1298 135.004 61.5344C135.25 61.5924 135.497 61.62 135.739 61.62C137.202 61.6195 138.526 60.6164 138.873 59.1311C140.89 50.4993 147.94 41.6716 148.009 41.586C148.557 40.908 148.806 40.0365 148.7 39.1717C148.595 38.3068 148.143 37.5209 147.448 36.9951C140.925 32.0537 138.94 19.6645 138.921 19.5432C138.686 18.0061 137.387 16.8565 135.833 16.8094C134.279 16.7699 132.913 17.8335 132.588 19.354C130.717 28.0785 120.974 38.1404 120.877 38.2398C120.202 38.9302 119.872 39.8863 119.978 40.8453C120.084 41.8043 120.614 42.6658 121.423 43.1921Z" fill="white"/>
</g>
</g>
</svg>
