<svg width="302" height="208" viewBox="0 0 302 208" fill="none" xmlns="http://www.w3.org/2000/svg">
<rect width="302" height="208" fill="#1C1C1C"/>
<mask id="mask0_188_5371" style="mask-type:alpha" maskUnits="userSpaceOnUse" x="0" y="0" width="302" height="208">
<rect width="302" height="208" fill="#1C1C1C"/>
</mask>
<g mask="url(#mask0_188_5371)">
<g opacity="0.1">
<path d="M41.9297 79.0365C40.8999 77.5855 38.8907 77.2446 37.4392 78.2739C33.4431 81.109 28.73 82.6076 23.8097 82.6076C10.805 82.6076 0.224967 72.0276 0.224967 59.0229C0.224967 46.0181 10.805 35.4386 23.8097 35.4386C25.4105 35.4386 27.0113 35.5998 28.567 35.9178C30.3104 36.2744 32.0115 35.15 32.3676 33.408C32.7242 31.665 31.5998 29.9634 29.8573 29.6068C27.8776 29.2022 25.8432 28.9973 23.8097 28.9973C7.25341 28.9973 -6.21631 42.467 -6.21631 59.0233C-6.21631 75.5801 7.25341 89.0498 23.8097 89.0498C30.0732 89.0498 36.0747 87.14 41.1666 83.5276C42.6172 82.4978 42.959 80.4876 41.9297 79.0365Z" fill="white"/>
<path d="M121.654 93.8723C120.285 92.7346 118.256 92.9224 117.118 94.2897C115.981 95.6576 116.168 97.6882 117.536 98.8254C121.11 101.797 124.148 105.314 126.566 109.28C127.173 110.276 128.234 110.825 129.319 110.825C129.89 110.825 130.47 110.672 130.993 110.353C132.511 109.427 132.992 107.446 132.066 105.926C129.277 101.354 125.775 97.2983 121.654 93.8723Z" fill="white"/>
<path d="M110.964 28.9979C108.931 28.9979 106.896 29.2033 104.916 29.6074C103.174 29.964 102.05 31.6656 102.406 33.4086C102.763 35.1506 104.459 36.2779 106.207 35.9184C107.762 35.6004 109.363 35.4392 110.964 35.4392C123.969 35.4392 134.549 46.0192 134.549 59.0235C134.549 72.0287 123.969 82.6082 110.964 82.6082C106.044 82.6082 101.331 81.1096 97.3349 78.2745C95.8843 77.2466 93.8742 77.588 92.8444 79.0372C91.8151 80.4882 92.1564 82.4984 93.607 83.5272C98.699 87.1401 104.7 89.0495 110.964 89.0495C127.521 89.0495 140.99 75.5797 140.99 59.023C140.99 42.4676 127.521 28.9979 110.964 28.9979Z" fill="white"/>
<path d="M78.1626 87.4378C76.7947 86.3 74.7641 86.4874 73.6268 87.8552C72.4891 89.2226 72.6764 91.2532 74.0443 92.3909C84.6129 101.178 90.6743 114.102 90.6743 127.847V133.474C90.6743 135.252 92.1163 136.694 93.8954 136.694C95.674 136.694 97.1156 135.252 97.1156 133.474V127.847C97.1156 112.182 90.2079 97.4534 78.1626 87.4378Z" fill="white"/>
<path d="M55.2655 87.4378C43.2202 97.4534 36.3115 112.182 36.3115 127.847V133.474C36.3115 135.252 37.7535 136.694 39.5322 136.694C41.3108 136.694 42.7528 135.252 42.7528 133.474V127.847C42.7528 114.102 48.8147 101.178 59.3833 92.3909C60.7511 91.2537 60.938 89.2226 59.8007 87.8552C58.6634 86.4874 56.6338 86.3 55.2655 87.4378Z" fill="white"/>
<path d="M99.1013 49.3034C99.1013 31.4449 84.5728 16.9169 66.7152 16.9169C48.8567 16.9169 34.3286 31.4454 34.3286 49.3034C34.3286 67.1615 48.8571 81.6895 66.7152 81.6895C84.5732 81.6895 99.1013 67.161 99.1013 49.3034ZM66.7152 75.2483C52.4087 75.2483 40.7699 63.6095 40.7699 49.3034C40.7699 34.9969 52.4087 23.3586 66.7152 23.3586C81.0212 23.3586 92.6595 34.9969 92.6595 49.3034C92.6595 63.6095 81.0212 75.2483 66.7152 75.2483Z" fill="white"/>
<path d="M160.936 59.024C160.936 7.07015 118.668 -35.198 66.7142 -35.198C66.7137 -35.198 66.7137 -35.198 66.7137 -35.198C14.7617 -35.198 -27.505 7.0673 -27.5078 59.0188C-27.5078 59.0207 -27.5083 59.0226 -27.5083 59.024C-27.5083 59.0259 -27.5078 59.0278 -27.5078 59.0297C-27.5064 83.1336 -18.4027 105.149 -3.45906 121.828C-4.06715 124.917 -4.3933 128.062 -4.3933 131.21V169.406C-4.3933 171.184 -2.95129 172.626 -1.17266 172.626H24.7298C26.509 172.626 27.9505 171.184 27.9505 169.406C27.9505 167.628 26.5085 166.185 24.7298 166.185H2.04797V131.21C2.04797 130.02 2.11596 128.83 2.21676 127.643C11.8915 136.742 23.4809 143.826 36.3116 148.212V169.406C36.3116 171.184 37.7536 172.626 39.5322 172.626H93.8951C95.6737 172.626 97.1153 171.184 97.1153 169.406V148.212C110.501 143.637 122.534 136.125 132.453 126.452C132.632 128.031 132.726 129.621 132.726 131.21V166.185H110.044C108.265 166.185 106.824 167.628 106.824 169.406C106.824 171.184 108.265 172.626 110.044 172.626H135.946C137.725 172.626 139.167 171.184 139.167 169.406V131.21C139.167 127.641 138.759 124.074 137.979 120.595C152.276 104.069 160.936 82.5393 160.936 59.024ZM90.674 166.185H42.7534V150.155C50.407 152.169 58.4367 153.246 66.7137 153.246C66.7137 153.246 66.7137 153.246 66.7142 153.246C74.9911 153.246 83.0208 152.169 90.6745 150.155V166.185H90.674ZM69.9343 146.74V140.835C69.9343 139.057 68.4928 137.614 66.7137 137.614C64.9346 137.614 63.493 139.057 63.493 140.835V146.74C17.6467 145.076 -19.3383 108.091 -21.0009 62.2446H-15.0969C-13.3183 62.2446 -11.8763 60.8031 -11.8763 59.024C-11.8763 57.2454 -13.3183 55.8038 -15.0969 55.8038H-21.0014C-19.3388 9.9575 17.6467 -27.028 63.4926 -28.6911V-22.7871C63.4926 -21.0085 64.9346 -19.5664 66.7132 -19.5664C68.4923 -19.5664 69.9338 -21.0085 69.9338 -22.7871V-28.6911C115.78 -27.0285 152.766 9.95703 154.428 55.8038H148.524C146.746 55.8038 145.304 57.2454 145.304 59.024C145.304 60.8031 146.746 62.2446 148.524 62.2446H154.428C152.767 108.091 115.781 145.077 69.9343 146.74Z" fill="white"/>
<path d="M13.1214 93.8718C8.68367 97.5617 4.97238 101.968 2.09169 106.969C1.20356 108.51 1.73368 110.48 3.27458 111.368C3.78093 111.659 4.33387 111.798 4.8792 111.798C5.99363 111.798 7.07669 111.219 7.67289 110.184C10.1718 105.847 13.3905 102.025 17.2402 98.8244C18.6076 97.6872 18.7949 95.6566 17.6576 94.2887C16.5199 92.9218 14.4893 92.7354 13.1214 93.8718Z" fill="white"/>
</g>
</g>
</svg>
