<svg width="302" height="208" viewBox="0 0 302 208" fill="none" xmlns="http://www.w3.org/2000/svg">
<rect width="302" height="208" fill="#1C1C1C"/>
<mask id="mask0_188_5371" style="mask-type:alpha" maskUnits="userSpaceOnUse" x="0" y="0" width="302" height="208">
<rect width="302" height="208" fill="#1C1C1C"/>
</mask>
<g mask="url(#mask0_188_5371)">
<g opacity="0.1">
<path d="M78.7217 9.44824C52.3257 9.44824 30.8501 30.9233 30.8501 57.3198C30.8501 64.937 32.6844 72.5171 36.1528 79.2399C36.9672 80.8208 38.9118 81.4398 40.4917 80.6258C42.0726 79.81 42.6935 77.8678 41.8772 76.2869C38.8348 70.3894 37.2915 64.0079 37.2915 57.3198C37.2915 34.4749 55.8763 15.8901 78.7212 15.8901C101.566 15.8901 120.151 34.4749 120.151 57.3198C120.151 71.056 113.361 83.8736 101.984 91.6068C100.513 92.6072 100.132 94.6102 101.131 96.0818C101.755 96.9984 102.767 97.4915 103.797 97.4915C104.422 97.4915 105.051 97.3108 105.605 96.9342C118.748 88.0001 126.593 73.1912 126.593 57.3198C126.594 30.9233 105.119 9.44824 78.7217 9.44824Z" fill="white"/>
<path d="M89.1898 87.8659C89.573 87.8659 89.9624 87.7965 90.3418 87.651C102.813 82.8699 111.192 70.6827 111.192 57.323C111.192 39.419 96.6268 24.8536 78.7228 24.8536C60.8192 24.8536 46.2524 39.419 46.2524 57.323C46.2524 65.6458 49.398 73.5601 55.1101 79.6097C56.3301 80.9034 58.3693 80.9633 59.6625 79.7409C60.9567 78.5195 61.0151 76.4817 59.7932 75.1885C55.2156 70.3384 52.6938 63.9936 52.6938 57.323C52.6938 42.9716 64.3704 31.2955 78.7223 31.2955C93.0742 31.2955 104.75 42.9716 104.75 57.323C104.75 68.0335 98.0327 77.8035 88.0354 81.6365C86.3746 82.2736 85.5445 84.1364 86.1807 85.7972C86.6727 87.0785 87.8937 87.8659 89.1898 87.8659Z" fill="white"/>
<path d="M18.1621 93.5472C19.9407 93.5472 21.3827 92.1047 21.3827 90.326C21.3827 88.5478 19.9407 87.1058 18.1621 87.1058H9.15039C7.37221 87.1058 5.93018 88.5478 5.93018 90.326V135.13C5.93018 136.909 7.37221 138.351 9.15039 138.351H29.9194H88.461C96.1048 138.351 103.662 135.797 109.738 131.159L129.29 116.238C134.735 112.083 135.867 104.212 131.813 98.6925C127.755 93.1654 119.899 91.8931 114.302 95.8564L104.293 102.945C102.841 103.974 102.498 105.984 103.526 107.436C104.555 108.887 106.565 109.23 108.016 108.202L118.026 101.113C120.774 99.1656 124.63 99.7932 126.621 102.505C128.611 105.215 128.056 109.078 125.383 111.117L105.831 126.038C100.869 129.824 94.7013 131.909 88.461 131.909H33.1401V93.5467H54.9442C58.7274 93.5467 62.2999 95.0025 65.0043 97.647C68.9215 101.473 74.0934 103.581 79.5682 103.581H85.8075C88.7292 103.581 91.105 105.956 91.105 108.877C91.105 112.771 87.9376 115.939 84.0432 115.939H61.4441C59.6659 115.939 58.2234 117.381 58.2234 119.16C58.2234 120.938 59.6659 122.38 61.4441 122.38H84.0432C91.4887 122.38 97.5464 116.323 97.5464 108.877C97.5464 102.406 92.2803 97.1392 85.8075 97.1392H79.5682C75.7856 97.1392 72.2125 95.6829 69.5068 93.0394C65.5924 89.2116 60.4205 87.1049 54.9442 87.1049H29.919C28.1408 87.1049 26.6983 88.5469 26.6983 90.3251V131.909H12.3711V93.5462H18.1621V93.5472Z" fill="white"/>
<path d="M78.7232 80.9905C80.5019 80.9905 81.9439 79.548 81.9439 77.7698V75.1624C86.4792 74.3256 89.9276 70.3495 89.9276 65.576C89.9276 60.1958 85.5511 55.8193 80.171 55.8193H79.6732H77.7809H77.2831C75.455 55.8193 73.9678 54.333 73.9678 52.5049C73.9678 50.6768 75.455 49.1905 77.2831 49.1905H84.8137C86.5924 49.1905 88.0344 47.748 88.0344 45.9699C88.0344 44.1917 86.5924 42.7492 84.8137 42.7492H81.9444V40.6924C81.9444 38.9137 80.5023 37.4717 78.7237 37.4717C76.9455 37.4717 75.5035 38.9142 75.5035 40.6924V42.9199C70.9715 43.76 67.5269 47.7347 67.5269 52.5054C67.5269 57.8846 71.9034 62.2611 77.2836 62.2611H77.7813H79.6736H80.1714C81.9995 62.2611 83.4867 63.7483 83.4867 65.5764C83.4867 67.4045 81.9995 68.8908 80.1714 68.8908H72.6408C70.8626 68.8908 69.4201 70.3333 69.4201 72.1115C69.4201 73.8901 70.8626 75.3322 72.6408 75.3322H75.5035V77.7703C75.503 79.548 76.945 80.9905 78.7232 80.9905Z" fill="white"/>
<path d="M160.708 157.11L134.411 138.95C132.948 137.939 130.941 138.305 129.931 139.769C128.92 141.233 129.287 143.239 130.75 144.25L153.209 159.761L135.802 171.784V166.339C135.802 164.561 134.359 163.118 132.581 163.118H31.3823V156.403H132.581C134.359 156.403 135.802 154.961 135.802 153.183C135.802 151.404 134.359 149.962 132.581 149.962H28.1611C26.383 149.962 24.9409 151.404 24.9409 153.183V166.339C24.9409 168.117 26.383 169.559 28.1611 169.559H129.36V177.922C129.36 179.119 130.024 180.218 131.084 180.774C131.555 181.021 132.068 181.143 132.581 181.143C133.224 181.143 133.863 180.95 134.411 180.572L160.708 162.411C161.579 161.809 162.098 160.818 162.098 159.76C162.098 158.702 161.579 157.711 160.708 157.11Z" fill="white"/>
<path d="M14.5894 149.957H0.281729C-1.49645 149.957 -2.93896 151.399 -2.93896 153.178V166.334C-2.93896 168.112 -1.49645 169.554 0.281729 169.554H14.5894C16.3676 169.554 17.8096 168.112 17.8096 166.334V153.178C17.8096 151.399 16.3676 149.957 14.5894 149.957ZM11.3683 163.114H3.50242V156.399H11.3683V163.114Z" fill="white"/>
<path d="M-13.2778 -3.67836L13.0188 14.4833C13.578 14.8689 14.2151 15.0539 14.8465 15.0539C15.8692 15.0539 16.8752 14.5684 17.4995 13.6636C18.5103 12.1997 18.1432 10.1943 16.6798 9.18301L-5.77946 -6.32899L11.6282 -18.3521V-12.9068C11.6282 -11.1287 13.0707 -9.68614 14.8489 -9.68614H116.048V-2.97137H14.8493C13.0712 -2.97137 11.6286 -1.52886 11.6286 0.249322C11.6286 2.0275 13.0712 3.47002 14.8493 3.47002H119.269C121.047 3.47002 122.489 2.0275 122.489 0.249322V-12.9068C122.489 -14.6855 121.047 -16.1275 119.269 -16.1275H18.07V-24.4907C18.07 -25.6879 17.4058 -26.7866 16.3456 -27.3434C15.2853 -27.8987 14.003 -27.8212 13.0188 -27.1408L-13.2778 -8.97867C-14.1488 -8.3777 -14.6685 -7.38639 -14.6685 -6.32852C-14.6685 -5.27064 -14.1488 -4.2798 -13.2778 -3.67836Z" fill="white"/>
<path d="M132.838 3.46936H147.145C148.923 3.46936 150.366 2.02685 150.366 0.248671V-12.9075C150.366 -14.6861 148.923 -16.1282 147.145 -16.1282H132.838C131.059 -16.1282 129.617 -14.6857 129.617 -12.9075V0.248671C129.617 2.02733 131.059 3.46936 132.838 3.46936ZM136.059 -9.68679H143.924V-2.97202H136.059V-9.68679Z" fill="white"/>
<path d="M160.719 -16.1282C158.941 -16.1282 157.499 -14.6857 157.499 -12.9075V0.248671C157.499 2.02685 158.941 3.46936 160.719 3.46936C162.497 3.46936 163.94 2.02685 163.94 0.248671V-12.9075C163.94 -14.6861 162.497 -16.1282 160.719 -16.1282Z" fill="white"/>
</g>
</g>
</svg>
