<svg width="302" height="208" viewBox="0 0 302 208" fill="none" xmlns="http://www.w3.org/2000/svg">
<rect width="302" height="208" fill="#1C1C1C"/>
<mask id="mask0_188_5371" style="mask-type:alpha" maskUnits="userSpaceOnUse" x="0" y="0" width="302" height="208">
<rect width="302" height="208" fill="#1C1C1C"/>
</mask>
<g mask="url(#mask0_188_5371)">
<g opacity="0.1">
<path d="M62.1355 94.9152C61.1813 96.4167 61.6244 98.4069 63.1259 99.3616C72.3515 105.226 83.033 108.326 94.0149 108.326C94.109 108.326 94.2027 108.319 94.2959 108.319C94.3206 108.319 94.343 108.326 94.3663 108.326C94.4071 108.326 94.4447 108.316 94.4851 108.315C126.057 108.06 151.665 82.3082 151.665 50.6766C151.665 19.045 126.058 -6.70727 94.4851 -6.96211C94.4447 -6.96354 94.4071 -6.974 94.3663 -6.974C94.342 -6.974 94.3197 -6.96687 94.2959 -6.96639C94.2027 -6.96687 94.109 -6.974 94.0149 -6.974C72.9962 -6.974 53.6345 4.47339 43.4846 22.9013C42.6264 24.4594 43.1941 26.4177 44.7522 27.2759C46.3078 28.1332 48.2686 27.5679 49.1273 26.0089C57.6801 10.4802 73.5967 0.537621 91.1451 -0.445608V1.44716C91.1451 3.22534 92.5866 4.66785 94.3653 4.66785C96.1444 4.66785 97.586 3.22534 97.586 1.44716V-0.394734C123.096 1.37394 143.516 21.8986 145.11 47.4554H143.288C141.509 47.4554 140.068 48.8975 140.068 50.6761C140.068 52.4543 141.509 53.8963 143.288 53.8963H145.11C143.516 79.4541 123.096 99.9783 97.586 101.746V99.9051C97.586 98.1274 96.1444 96.6849 94.3653 96.6849C92.5866 96.6849 91.1451 98.1274 91.1451 99.9051V101.797C82.4049 101.312 73.9657 98.6199 66.58 93.9249C65.0781 92.9683 63.0893 93.4142 62.1355 94.9152Z" fill="white"/>
<path d="M93.8804 -21.391C68.2137 -21.391 44.2848 -7.57016 31.432 14.6799C30.542 16.2199 31.0697 18.1901 32.6102 19.0797C34.1516 19.9721 36.1204 19.443 37.01 17.9025C48.7151 -2.36162 70.5063 -14.9501 93.8804 -14.9501C130.067 -14.9501 159.507 14.4897 159.507 50.6771C159.507 86.864 130.067 116.304 93.8804 116.304C82.9526 116.304 72.1376 113.565 62.601 108.386C61.0368 107.535 59.0832 108.115 58.2331 109.679C57.3844 111.242 57.963 113.197 59.5258 114.047C70.0024 119.738 81.8819 122.747 93.8804 122.747C133.618 122.747 165.949 90.4166 165.949 50.6781C165.949 10.9391 133.618 -21.391 93.8804 -21.391Z" fill="white"/>
<path d="M93.8806 38.3615C87.0907 38.3615 81.5669 43.8853 81.5669 50.6757C81.5669 57.4656 87.0907 62.9903 93.8806 62.9903C94.4173 62.9903 94.9418 62.9442 95.4605 62.8776L113.201 80.618C114.718 82.1342 116.711 82.8931 118.704 82.8931C120.698 82.8931 122.692 82.1343 124.209 80.6171C125.68 79.147 126.49 77.1915 126.49 75.1119C126.49 73.0327 125.68 71.0772 124.209 69.6076L112.334 57.7318C111.076 56.4738 109.035 56.4738 107.778 57.7318C106.52 58.9894 106.52 61.0291 107.778 62.2861L119.655 74.1624C119.997 74.5042 120.048 74.9041 120.048 75.1114C120.048 75.3196 119.997 75.72 119.655 76.0613C119.132 76.5867 118.279 76.5862 117.756 76.0623L101.793 60.0991C104.481 57.8383 106.196 54.4545 106.196 50.6757C106.196 46.8364 104.428 43.4042 101.666 41.1439V16.3131C101.666 12.0202 98.1743 8.52759 93.8815 8.52759C89.5891 8.52759 86.0975 12.0202 86.0975 16.3131V33.9066C86.0975 35.6852 87.5385 37.1273 89.3172 37.1273C91.0963 37.1273 92.5379 35.6852 92.5379 33.9066V16.3131C92.5379 15.5723 93.1403 14.9694 93.8806 14.9694C94.6218 14.9694 95.2237 15.5728 95.2237 16.3131V38.4381C94.782 38.3905 94.3346 38.3615 93.8806 38.3615ZM99.7533 50.6757C99.7533 53.9144 97.1184 56.5494 93.8796 56.5494C90.6408 56.5494 88.0064 53.9144 88.0064 50.6757C88.0064 47.4374 90.6408 44.8025 93.8796 44.8025C97.1184 44.8029 99.7533 47.4379 99.7533 50.6757Z" fill="white"/>
<path d="M29.8117 114.875C28.1529 114.235 26.2882 115.06 25.6458 116.717C25.004 118.376 25.8289 120.242 27.4877 120.884C49.4017 129.358 51.0415 158.871 50.9844 168.382H-27.0021C-27.0587 158.867 -25.4179 129.358 -3.50538 120.884C-1.84653 120.242 -1.0221 118.377 -1.66348 116.717C-2.30486 115.059 -4.16863 114.234 -5.82937 114.875C-36.416 126.705 -33.4763 170.01 -33.336 171.847C-33.2076 173.527 -31.8084 174.823 -30.1248 174.823H54.1067C55.7903 174.823 57.19 173.527 57.3179 171.847C57.4586 170.01 60.3983 126.705 29.8117 114.875Z" fill="white"/>
<path d="M11.9896 107.868C35.6651 107.868 54.9265 88.6047 54.9265 64.9297C54.9265 41.2547 35.6651 21.9938 11.9896 21.9938C-11.6854 21.9938 -30.9468 41.2547 -30.9468 64.9297C-30.9468 88.6047 -11.6859 107.868 11.9896 107.868ZM11.9896 28.4361C32.1135 28.4361 48.4851 44.8082 48.4851 64.9306C48.4851 85.054 32.1135 101.426 11.9896 101.426C-8.13377 101.426 -24.5054 85.054 -24.5054 64.9306C-24.5054 44.8082 -8.13377 28.4361 11.9896 28.4361Z" fill="white"/>
</g>
</g>
</svg>
