<svg width="22" height="22" viewBox="0 0 22 22" fill="none" xmlns="http://www.w3.org/2000/svg">
<g clip-path="url(#clip0_134_4041)">
<path d="M5.02392 1.82592C4.94275 1.7215 4.84029 1.63555 4.72335 1.57378C4.60641 1.512 4.47766 1.47582 4.34566 1.46762C4.21366 1.45943 4.08142 1.47942 3.95774 1.52626C3.83406 1.5731 3.72176 1.64572 3.6283 1.73929L2.20655 3.16242C1.54242 3.82792 1.29767 4.76979 1.5878 5.59617C2.79194 9.0166 4.7507 12.122 7.3188 14.6822C9.87894 17.2502 12.9844 19.209 16.4048 20.4132C17.2312 20.7033 18.173 20.4585 18.8385 19.7944L20.2603 18.3727C20.3539 18.2792 20.4265 18.1669 20.4733 18.0432C20.5202 17.9195 20.5402 17.7873 20.532 17.6553C20.5238 17.5233 20.4876 17.3946 20.4258 17.2776C20.364 17.1607 20.2781 17.0582 20.1737 16.977L17.0015 14.5103C16.89 14.4238 16.7602 14.3637 16.6221 14.3347C16.4839 14.3056 16.341 14.3083 16.204 14.3425L13.1928 15.0947C12.7909 15.1951 12.3698 15.1898 11.9705 15.0792C11.5712 14.9686 11.2074 14.7565 10.9144 14.4635L7.53742 11.0852C7.24423 10.7923 7.03187 10.4286 6.92103 10.0293C6.81018 9.63003 6.80463 9.20885 6.90492 8.80679L7.65842 5.79554C7.69267 5.65859 7.69536 5.51564 7.6663 5.37749C7.63725 5.23934 7.57719 5.1096 7.49067 4.99804L5.02392 1.82592ZM2.59017 0.702542C2.83079 0.461848 3.11986 0.275097 3.43819 0.154689C3.75652 0.0342815 4.09682 -0.0170271 4.4365 0.00417027C4.77617 0.0253677 5.10746 0.118586 5.40834 0.277635C5.70923 0.436685 5.97284 0.657926 6.18167 0.926667L8.64842 4.09742C9.1008 4.67904 9.2603 5.43667 9.08155 6.15167L8.32942 9.16292C8.29053 9.31888 8.29263 9.48225 8.33552 9.63717C8.3784 9.79208 8.46061 9.93328 8.57417 10.047L11.9525 13.4254C12.0664 13.5392 12.2079 13.6216 12.3631 13.6644C12.5182 13.7073 12.6819 13.7093 12.838 13.6702L15.8479 12.918C16.2008 12.8298 16.569 12.823 16.9249 12.898C17.2808 12.973 17.615 13.128 17.9022 13.3512L21.0729 15.8179C22.2128 16.7048 22.3173 18.3892 21.297 19.408L19.8753 20.8298C18.8578 21.8473 17.337 22.2942 15.9194 21.795C12.291 20.5184 8.99667 18.4412 6.28067 15.7175C3.55719 13.0019 1.48001 9.70805 0.203171 6.08017C-0.294579 4.66392 0.152296 3.14179 1.1698 2.12429L2.59155 0.702542H2.59017Z" fill="white"/>
</g>
<defs>
<clipPath id="clip0_134_4041">
<rect width="22" height="22" fill="white"/>
</clipPath>
</defs>
</svg>
