<svg width="75" height="76" viewBox="0 0 75 76" fill="none" xmlns="http://www.w3.org/2000/svg">
<path d="M35.1968 44.3198C34.8455 44.879 35.0086 45.6203 35.5614 45.9759C38.9575 48.1602 42.8897 49.3146 46.9324 49.3146C46.967 49.3146 47.0015 49.3122 47.0358 49.3122C47.0449 49.3122 47.0532 49.3146 47.0617 49.3146C47.0768 49.3146 47.0906 49.3109 47.1055 49.3106C58.7278 49.2158 68.155 39.6242 68.155 27.8428C68.155 16.0614 58.7282 6.46983 47.1055 6.37491C47.0906 6.37438 47.0768 6.37048 47.0617 6.37048C47.0528 6.37048 47.0446 6.37314 47.0358 6.37332C47.0015 6.37314 46.967 6.37048 46.9324 6.37048C39.1949 6.37048 32.0673 10.6341 28.3309 17.4977C28.015 18.078 28.224 18.8075 28.7975 19.1271C29.3702 19.4464 30.092 19.2358 30.4081 18.6552C33.5566 12.8714 39.4159 9.16824 45.8759 8.80203V9.507C45.8759 10.1693 46.4066 10.7066 47.0614 10.7066C47.7163 10.7066 48.247 10.1693 48.247 9.507V8.82097C57.6378 9.47973 65.1549 17.1243 65.742 26.6431H65.0709C64.4163 26.6431 63.8857 27.1802 63.8857 27.8426C63.8857 28.5049 64.4163 29.042 65.0709 29.042H65.742C65.1549 38.5612 57.6378 46.2056 48.247 46.8641V46.1783C48.247 45.5162 47.7163 44.9789 47.0614 44.9789C46.4066 44.9789 45.8759 45.5162 45.8759 46.1783V46.8831C42.6585 46.7023 39.5518 45.6996 36.8329 43.9509C36.28 43.5946 35.5479 43.7607 35.1968 44.3198Z" fill="#BA2B43"/>
<path d="M46.8815 1C37.4329 1 28.6241 6.14766 23.8926 14.4348C23.565 15.0084 23.7592 15.7423 24.3263 16.0736C24.8938 16.406 25.6185 16.2089 25.946 15.6351C30.255 8.08762 38.2769 3.39896 46.8815 3.39896C60.2028 3.39896 71.0403 14.364 71.0403 27.8422C71.0403 41.3203 60.2028 52.2853 46.8815 52.2853C42.8587 52.2853 38.8774 51.2653 35.3667 49.3362C34.7909 49.0194 34.0717 49.2354 33.7588 49.8179C33.4464 50.3999 33.6594 51.1281 34.2347 51.4447C38.0913 53.5646 42.4645 54.6852 46.8815 54.6852C61.5101 54.6852 73.4118 42.6435 73.4118 27.8426C73.4118 13.0415 61.5101 1 46.8815 1Z" fill="#BA2B43"/>
<path d="M46.8816 23.2561C44.3821 23.2561 42.3486 25.3135 42.3486 27.8426C42.3486 30.3715 44.3821 32.4292 46.8816 32.4292C47.0792 32.4292 47.2723 32.4121 47.4632 32.3873L53.9939 38.9948C54.5523 39.5595 55.2861 39.8422 56.0198 39.8422C56.7537 39.8422 57.4879 39.5595 58.0465 38.9945C58.588 38.4469 58.8859 37.7186 58.8859 36.944C58.8859 36.1696 58.588 35.4413 58.0465 34.8939L53.6747 30.4707C53.2116 30.0021 52.4605 30.0021 51.9978 30.4707C51.5346 30.9391 51.5346 31.6988 51.9978 32.167L56.3697 36.5904C56.4959 36.7177 56.5145 36.8666 56.5145 36.9438C56.5145 37.0214 56.4959 37.1705 56.3697 37.2976C56.1772 37.4933 55.8632 37.4931 55.6707 37.298L49.7944 31.3524C50.7838 30.5104 51.4151 29.2501 51.4151 27.8426C51.4151 26.4126 50.7645 25.1343 49.7476 24.2924V15.044C49.7476 13.4451 48.4623 12.1443 46.882 12.1443C45.3018 12.1443 44.0165 13.4451 44.0165 15.044V21.5968C44.0165 22.2593 44.5469 22.7964 45.2017 22.7964C45.8567 22.7964 46.3873 22.2593 46.3873 21.5968V15.044C46.3873 14.7681 46.6091 14.5436 46.8816 14.5436C47.1545 14.5436 47.3761 14.7683 47.3761 15.044V23.2846C47.2135 23.2669 47.0488 23.2561 46.8816 23.2561ZM49.0435 27.8426C49.0435 29.0489 48.0735 30.0303 46.8813 30.0303C45.689 30.0303 44.7192 29.0489 44.7192 27.8426C44.7192 26.6365 45.689 25.6551 46.8813 25.6551C48.0735 25.6552 49.0435 26.6366 49.0435 27.8426Z" fill="#BA2B43"/>
<path d="M23.2964 51.7546C22.6858 51.5163 21.9993 51.8235 21.7629 52.4408C21.5266 53.0587 21.8302 53.7536 22.4409 53.9928C30.508 57.1492 31.1117 68.1415 31.0906 71.6837H2.38181C2.36098 68.1401 2.96499 57.1492 11.0315 53.9928C11.6422 53.7536 11.9457 53.059 11.7096 52.4408C11.4735 51.8232 10.7874 51.5159 10.176 51.7546C-1.08369 56.161 -0.00150723 72.2902 0.0501252 72.9743C0.0973819 73.5999 0.61248 74.0828 1.23224 74.0828H32.24C32.8598 74.0828 33.3751 73.5999 33.4222 72.9743C33.474 72.2902 34.5561 56.161 23.2964 51.7546Z" fill="#BA2B43"/>
<path d="M16.7366 49.1439C25.4522 49.1439 32.5428 41.9694 32.5428 33.1515C32.5428 24.3336 25.4522 17.1597 16.7366 17.1597C8.02128 17.1597 0.930664 24.3336 0.930664 33.1515C0.930664 41.9694 8.0211 49.1439 16.7366 49.1439ZM16.7366 19.5592C24.1448 19.5592 30.1716 25.6571 30.1716 33.1518C30.1716 40.6469 24.1448 46.7448 16.7366 46.7448C9.32871 46.7448 3.3019 40.6469 3.3019 33.1518C3.3019 25.6571 9.32871 19.5592 16.7366 19.5592Z" fill="#BA2B43"/>
</svg>
