<svg width="14" height="14" viewBox="0 0 14 14" fill="none" xmlns="http://www.w3.org/2000/svg">
<path fill-rule="evenodd" clip-rule="evenodd" d="M1.75 0C1.28587 0 0.840752 0.184375 0.512563 0.512563C0.184375 0.840752 0 1.28587 0 1.75H14C14 1.28587 13.8156 0.840752 13.4874 0.512563C13.1592 0.184375 12.7141 0 12.25 0L1.75 0ZM0 12.25V2.625H14V12.25C14 12.7141 13.8156 13.1592 13.4874 13.4874C13.1592 13.8156 12.7141 14 12.25 14H1.75C1.28587 14 0.840752 13.8156 0.512563 13.4874C0.184375 13.1592 0 12.7141 0 12.25ZM10.5 5.25C10.5 5.48206 10.5922 5.70462 10.7563 5.86872C10.9204 6.03281 11.1429 6.125 11.375 6.125C11.6071 6.125 11.8296 6.03281 11.9937 5.86872C12.1578 5.70462 12.25 5.48206 12.25 5.25C12.25 5.01794 12.1578 4.79538 11.9937 4.63128C11.8296 4.46719 11.6071 4.375 11.375 4.375C11.1429 4.375 10.9204 4.46719 10.7563 4.63128C10.5922 4.79538 10.5 5.01794 10.5 5.25ZM4.375 7.875C4.375 8.10706 4.46719 8.32962 4.63128 8.49372C4.79538 8.65781 5.01794 8.75 5.25 8.75C5.48206 8.75 5.70462 8.65781 5.86872 8.49372C6.03281 8.32962 6.125 8.10706 6.125 7.875C6.125 7.64294 6.03281 7.42038 5.86872 7.25628C5.70462 7.09219 5.48206 7 5.25 7C5.01794 7 4.79538 7.09219 4.63128 7.25628C4.46719 7.42038 4.375 7.64294 4.375 7.875ZM8.75 6.125C8.51794 6.125 8.29538 6.03281 8.13128 5.86872C7.96719 5.70462 7.875 5.48206 7.875 5.25C7.875 5.01794 7.96719 4.79538 8.13128 4.63128C8.29538 4.46719 8.51794 4.375 8.75 4.375C8.98206 4.375 9.20462 4.46719 9.36872 4.63128C9.53281 4.79538 9.625 5.01794 9.625 5.25C9.625 5.48206 9.53281 5.70462 9.36872 5.86872C9.20462 6.03281 8.98206 6.125 8.75 6.125ZM1.75 7.875C1.75 8.10706 1.84219 8.32962 2.00628 8.49372C2.17038 8.65781 2.39294 8.75 2.625 8.75C2.85706 8.75 3.07962 8.65781 3.24372 8.49372C3.40781 8.32962 3.5 8.10706 3.5 7.875C3.5 7.64294 3.40781 7.42038 3.24372 7.25628C3.07962 7.09219 2.85706 7 2.625 7C2.39294 7 2.17038 7.09219 2.00628 7.25628C1.84219 7.42038 1.75 7.64294 1.75 7.875V7.875Z" fill="#333333"/>
</svg>
