<svg width="13" height="18" viewBox="0 0 13 18" fill="none" xmlns="http://www.w3.org/2000/svg">
<path d="M6.5 18C6.5 18 13 11.6033 13 6.75C13 4.95979 12.3152 3.2429 11.0962 1.97703C9.87721 0.711159 8.22391 0 6.5 0C4.77609 0 3.12279 0.711159 1.90381 1.97703C0.684819 3.2429 2.56882e-08 4.95979 0 6.75C0 11.6033 6.5 18 6.5 18ZM6.5 10.125C5.63805 10.125 4.8114 9.76942 4.2019 9.13649C3.59241 8.50355 3.25 7.64511 3.25 6.75C3.25 5.85489 3.59241 4.99645 4.2019 4.36351C4.8114 3.73058 5.63805 3.375 6.5 3.375C7.36195 3.375 8.1886 3.73058 8.7981 4.36351C9.40759 4.99645 9.75 5.85489 9.75 6.75C9.75 7.64511 9.40759 8.50355 8.7981 9.13649C8.1886 9.76942 7.36195 10.125 6.5 10.125Z" fill="#333333"/>
</svg>
