<svg width="13" height="14" viewBox="0 0 13 14" fill="none" xmlns="http://www.w3.org/2000/svg">
<path d="M3 -9.53674e-07V14H5.86V-9.53674e-07H3ZM4.7 2.42H7.58C8.15333 2.42 8.63333 2.48 9.02 2.6C9.42 2.70667 9.72667 2.89333 9.94 3.16C10.1667 3.41333 10.28 3.75333 10.28 4.18C10.28 4.62 10.1667 4.96667 9.94 5.22C9.72667 5.47333 9.42 5.66 9.02 5.78C8.63333 5.9 8.15333 5.96 7.58 5.96H4.7V8.38H7.58C8.68667 8.38 9.64 8.24 10.44 7.96C11.2533 7.66667 11.88 7.21333 12.32 6.6C12.76 5.97333 12.98 5.16667 12.98 4.18C12.98 3.18 12.76 2.37333 12.32 1.76C11.88 1.14667 11.2533 0.699999 10.44 0.42C9.64 0.139999 8.68667 -9.53674e-07 7.58 -9.53674e-07H4.7V2.42ZM5.6 12.28H9.78V10.02H5.6V12.28ZM0.6 8.28H4.78V6.02H0.6V8.28ZM0.6 12.28H4.78V10.02H0.6V12.28Z" fill="#333333"/>
</svg>
